<svg width="326" height="97" viewBox="0 0 326 97" fill="none" xmlns="http://www.w3.org/2000/svg">
<path fill-rule="evenodd" clip-rule="evenodd" d="M46.9242 5.13379L3.41309 48.6449L47.0209 92.1561L90.4354 48.6449L46.9242 5.13379ZM12.7922 58.024V39.3626H81.2497V58.024C81.153 58.024 12.7922 58.024 12.7922 58.024Z" fill="#00ADEE"/>
<path d="M33.9687 56.0902V41.1997H37.7396V56.0902H33.9687ZM41.2205 56.0902V41.1997H54.854V43.7137H44.9915V47.0012H54.1772V49.6119H44.8948V53.6729H55.1441V56.1869C55.2408 56.0902 41.2205 56.0902 41.2205 56.0902ZM61.5257 48.645C61.5257 50.2887 62.0092 51.6424 62.9761 52.5126C63.943 53.3829 65.2 53.7696 66.6504 53.7696C68.1008 53.7696 69.3577 53.2862 70.3247 52.5126C71.2916 51.6424 71.775 50.3854 71.775 48.645C71.775 46.9045 71.2916 45.6475 70.4213 44.7773C69.4544 43.9071 68.2941 43.5203 66.7471 43.5203C65.2 43.5203 63.943 43.9071 63.0728 44.7773C61.9125 45.6475 61.5257 46.9045 61.5257 48.645ZM57.6581 48.7417C57.6581 47.1946 57.9482 45.9376 58.5283 44.874C58.9151 44.1005 59.4952 43.4236 60.2687 42.8435C60.9456 42.2633 61.8158 41.7799 62.686 41.4898C63.8463 41.103 65.2 40.9097 66.6504 40.9097C69.3577 40.9097 71.5816 41.5865 73.1287 42.9402C74.7725 44.2939 75.546 46.2277 75.546 48.645C75.546 51.0623 74.7725 52.8994 73.1287 54.2531C71.485 55.6068 69.3577 56.2836 66.6504 56.2836C63.943 56.2836 61.7191 55.6068 60.0754 54.2531C58.4316 52.9961 57.6581 51.159 57.6581 48.7417ZM18.4014 56.0902V41.1997H30.9713V43.7137H22.0756V47.1946H29.811V49.7086H22.0756V55.9935H18.4014V56.0902Z" fill="#00ADEE"/>
<path d="M46.9242 5.13379L35.5146 16.5434L46.9242 27.8563V5.13379Z" fill="#7DC795"/>
<path d="M46.9238 27.8563L58.4301 16.5434L46.9238 5.13379V27.8563Z" fill="#B158A1"/>
<path d="M58.4301 16.5435L46.9238 27.8564L58.4301 39.3626V16.5435Z" fill="#79CFE2"/>
<path d="M58.4305 39.3625L46.9242 27.8562L35.5146 39.3625H58.4305Z" fill="#E64F25"/>
<path d="M35.5155 39.3625L24.2026 27.8562L12.793 39.3625H35.5155Z" fill="#E47925"/>
<path d="M81.1541 39.3625L69.7445 27.9529L58.4316 39.3625H81.1541Z" fill="#F1D372"/>
<path d="M58.4316 39.3626L69.7445 27.953L58.4316 16.5435V39.3626Z" fill="#6EBD44"/>
<path d="M35.515 16.6399L24.2021 27.8561L35.515 39.3624V16.6399Z" fill="#72C8C0"/>
<path d="M35.5146 39.3626L46.9242 27.8564L35.5146 16.5435V39.3626Z" fill="#7A63AA"/>
<path d="M47.0205 92.1558L58.5268 80.7463L47.0205 69.3367V92.1558Z" fill="#0096CF"/>
<path d="M47.0209 69.3367L35.6113 80.7463L47.0209 92.1558V69.3367Z" fill="#6EBD44"/>
<path d="M35.6113 80.7464L47.0209 69.3368L35.6113 58.0239V80.7464Z" fill="#F1CB2F"/>
<path d="M35.6113 58.0239L47.0209 69.3368L58.5272 58.0239H35.6113Z" fill="#72C8C0"/>
<path d="M58.5273 58.0239L69.8402 69.3368L81.1531 58.0239H58.5273Z" fill="#E54325"/>
<path d="M12.793 58.0239L24.2026 69.3368L35.6121 58.0239H12.793Z" fill="#B158A1"/>
<path d="M35.6117 58.0239L24.2021 69.3368L35.6117 80.7464V58.0239Z" fill="#F27021"/>
<path d="M58.5273 80.7464L69.8402 69.3368L58.5273 58.0239V80.7464Z" fill="#6EBD44"/>
<path d="M58.5268 58.0239L47.0205 69.3368L58.5268 80.7464V58.0239Z" fill="#7A63AA"/>
<path d="M97.2159 28.8423V10.0455H104.479V11.9252H99.8382V18.1908H103.435V20.0472H99.8382V28.8423H97.2159ZM106.281 28.8423V10.0455H113.567V11.9948H108.903V18.214H112.686V20.0704H108.903V26.9626H113.614V28.8423H106.281ZM115.731 28.8423V10.0455H119.815C121.207 10.0455 122.306 10.2621 123.11 10.6952C123.93 11.1129 124.51 11.7472 124.851 12.5981C125.207 13.449 125.384 14.5087 125.384 15.7773V22.6927C125.384 24.0232 125.207 25.1448 124.851 26.0576C124.51 26.9703 123.946 27.6665 123.157 28.1461C122.383 28.6102 121.339 28.8423 120.024 28.8423H115.731ZM118.353 26.9626H119.838C120.797 26.9626 121.478 26.777 121.88 26.4057C122.283 26.0344 122.522 25.4929 122.6 24.7812C122.693 24.0696 122.739 23.211 122.739 22.2054V16.1022C122.739 15.1276 122.677 14.3386 122.553 13.7352C122.43 13.1319 122.159 12.691 121.741 12.4125C121.323 12.134 120.666 11.9948 119.769 11.9948H118.353V26.9626ZM127.968 28.8423V10.0455H135.255V11.9948H130.591V18.214H134.373V20.0704H130.591V26.9626H135.301V28.8423H127.968ZM137.418 28.8423V10.0455H141.201C142.454 10.0455 143.491 10.2157 144.311 10.556C145.13 10.8809 145.734 11.4146 146.121 12.1572C146.523 12.8843 146.724 13.8435 146.724 15.0348C146.724 15.7619 146.647 16.4271 146.492 17.0305C146.337 17.6183 146.09 18.1211 145.749 18.5388C145.409 18.9411 144.96 19.235 144.403 19.4207L147.072 28.8423H144.543L142.083 20.024H140.041V28.8423H137.418ZM140.041 18.1443H141.038C141.781 18.1443 142.384 18.0515 142.849 17.8659C143.313 17.6802 143.653 17.3631 143.87 16.9144C144.086 16.4658 144.194 15.8392 144.194 15.0348C144.194 13.9363 143.993 13.1473 143.591 12.6677C143.189 12.1727 142.392 11.9252 141.201 11.9252H140.041V18.1443ZM148.431 28.8423L152.422 10.0455H154.952L158.966 28.8423H156.483L155.625 24.1083H151.796L150.891 28.8423H148.431ZM152.144 22.2286H155.277L153.699 13.7584L152.144 22.2286ZM162.191 28.8423V11.9948H159.012V10.0455H167.9V11.9948H164.813V28.8423H162.191ZM169.851 28.8423V10.0455H172.427V28.8423H169.851ZM180.272 29.0511C179.003 29.0511 177.99 28.8036 177.232 28.3085C176.474 27.8135 175.932 27.1096 175.607 26.1968C175.282 25.2686 175.12 24.1856 175.12 22.948V15.8238C175.12 14.5861 175.282 13.5264 175.607 12.6445C175.948 11.7472 176.489 11.0665 177.232 10.6024C177.99 10.1228 179.003 9.88303 180.272 9.88303C181.54 9.88303 182.546 10.1228 183.288 10.6024C184.031 11.082 184.565 11.7627 184.89 12.6445C185.23 13.5264 185.4 14.5861 185.4 15.8238V22.9712C185.4 24.1934 185.23 25.2608 184.89 26.1736C184.565 27.0864 184.031 27.798 183.288 28.3085C182.546 28.8036 181.54 29.0511 180.272 29.0511ZM180.272 26.9858C180.968 26.9858 181.494 26.8466 181.85 26.5681C182.205 26.2742 182.445 25.8719 182.569 25.3614C182.693 24.8354 182.755 24.2243 182.755 23.5281V15.29C182.755 14.5938 182.693 13.9982 182.569 13.5032C182.445 12.9926 182.205 12.6059 181.85 12.3429C181.494 12.0644 180.968 11.9252 180.272 11.9252C179.575 11.9252 179.042 12.0644 178.67 12.3429C178.315 12.6059 178.075 12.9926 177.951 13.5032C177.827 13.9982 177.765 14.5938 177.765 15.29V23.5281C177.765 24.2243 177.827 24.8354 177.951 25.3614C178.075 25.8719 178.315 26.2742 178.67 26.5681C179.042 26.8466 179.575 26.9858 180.272 26.9858ZM187.977 28.8423V10.0455H189.764L195.102 22.5303V10.0455H197.283V28.8423H195.612L190.205 16.0094V28.8423H187.977ZM210.344 29.0511C209.076 29.0511 208.062 28.8036 207.304 28.3085C206.546 27.8135 206.005 27.1096 205.68 26.1968C205.355 25.2686 205.192 24.1856 205.192 22.948V15.8238C205.192 14.5861 205.355 13.5264 205.68 12.6445C206.02 11.7472 206.562 11.0665 207.304 10.6024C208.062 10.1228 209.076 9.88303 210.344 9.88303C211.613 9.88303 212.618 10.1228 213.361 10.6024C214.103 11.082 214.637 11.7627 214.962 12.6445C215.302 13.5264 215.473 14.5861 215.473 15.8238V22.9712C215.473 24.1934 215.302 25.2608 214.962 26.1736C214.637 27.0864 214.103 27.798 213.361 28.3085C212.618 28.8036 211.613 29.0511 210.344 29.0511ZM210.344 26.9858C211.04 26.9858 211.566 26.8466 211.922 26.5681C212.278 26.2742 212.518 25.8719 212.641 25.3614C212.765 24.8354 212.827 24.2243 212.827 23.5281V15.29C212.827 14.5938 212.765 13.9982 212.641 13.5032C212.518 12.9926 212.278 12.6059 211.922 12.3429C211.566 12.0644 211.04 11.9252 210.344 11.9252C209.648 11.9252 209.114 12.0644 208.743 12.3429C208.387 12.6059 208.147 12.9926 208.024 13.5032C207.9 13.9982 207.838 14.5938 207.838 15.29V23.5281C207.838 24.2243 207.9 24.8354 208.024 25.3614C208.147 25.8719 208.387 26.2742 208.743 26.5681C209.114 26.8466 209.648 26.9858 210.344 26.9858ZM218.05 28.8423V10.0455H225.313V11.9252H220.672V18.1908H224.269V20.0472H220.672V28.8423H218.05ZM232.557 28.8423V10.0455H235.133V28.8423H232.557ZM238.174 28.8423V10.0455H239.961L245.298 22.5303V10.0455H247.479V28.8423H245.809L240.402 16.0094V28.8423H238.174ZM250.434 28.8423V10.0455H254.518C255.911 10.0455 257.009 10.2621 257.813 10.6952C258.633 11.1129 259.214 11.7472 259.554 12.5981C259.91 13.449 260.088 14.5087 260.088 15.7773V22.6927C260.088 24.0232 259.91 25.1448 259.554 26.0576C259.214 26.9703 258.649 27.6665 257.86 28.1461C257.086 28.6102 256.042 28.8423 254.727 28.8423H250.434ZM253.056 26.9626H254.541C255.501 26.9626 256.181 26.777 256.584 26.4057C256.986 26.0344 257.226 25.4929 257.303 24.7812C257.396 24.0696 257.442 23.211 257.442 22.2054V16.1022C257.442 15.1276 257.38 14.3386 257.257 13.7352C257.133 13.1319 256.862 12.691 256.444 12.4125C256.027 12.134 255.369 11.9948 254.472 11.9948H253.056V26.9626ZM262.811 28.8423V10.0455H265.387V28.8423H262.811ZM267.407 28.8423L271.398 10.0455H273.927L277.942 28.8423H275.459L274.6 24.1083H270.771L269.866 28.8423H267.407ZM271.12 22.2286H274.252L272.674 13.7584L271.12 22.2286ZM279.849 28.8423V10.0455H281.636L286.974 22.5303V10.0455H289.155V28.8423H287.484L282.077 16.0094V28.8423H279.849Z" fill="#0099FF"/>
<path d="M97.2159 56.6895V37.8926H104.503V39.8419H99.8382V46.0611H103.621V47.9176H99.8382V54.8098H104.549V56.6895H97.2159ZM105.506 56.6895L109.427 46.8501L105.575 37.8926H108.012L110.866 44.5295L113.465 37.8926H115.902L111.957 47.059L116.088 56.6895H113.651L110.588 49.6116L107.942 56.6895H105.506ZM117.861 56.6895V37.8926H122.525C123.655 37.8926 124.552 38.1015 125.217 38.5192C125.898 38.9214 126.393 39.5093 126.702 40.2829C127.012 41.0564 127.167 41.9924 127.167 43.0908C127.167 44.0809 126.989 44.9395 126.633 45.6666C126.292 46.3938 125.782 46.9584 125.101 47.3607C124.421 47.7474 123.57 47.9408 122.549 47.9408H120.483V56.6895H117.861ZM120.483 46.0611H121.69C122.448 46.0611 123.044 45.976 123.477 45.8059C123.91 45.6357 124.219 45.3417 124.405 44.924C124.591 44.4909 124.684 43.8875 124.684 43.114C124.684 42.2167 124.614 41.5282 124.475 41.0487C124.351 40.5691 124.08 40.2364 123.662 40.0508C123.245 39.8651 122.595 39.7723 121.713 39.7723H120.483V46.0611ZM133.814 56.8983C132.546 56.8983 131.532 56.6508 130.774 56.1557C130.016 55.6607 129.475 54.9567 129.15 54.044C128.825 53.1157 128.663 52.0328 128.663 50.7951V43.6709C128.663 42.4333 128.825 41.3735 129.15 40.4917C129.49 39.5944 130.032 38.9137 130.774 38.4496C131.532 37.97 132.546 37.7302 133.814 37.7302C135.083 37.7302 136.089 37.97 136.831 38.4496C137.574 38.9292 138.107 39.6099 138.432 40.4917C138.773 41.3735 138.943 42.4333 138.943 43.6709V50.8184C138.943 52.0405 138.773 53.108 138.432 54.0208C138.107 54.9335 137.574 55.6452 136.831 56.1557C136.089 56.6508 135.083 56.8983 133.814 56.8983ZM133.814 54.833C134.511 54.833 135.037 54.6937 135.392 54.4153C135.748 54.1213 135.988 53.7191 136.112 53.2086C136.236 52.6826 136.297 52.0715 136.297 51.3753V43.1372C136.297 42.441 136.236 41.8454 136.112 41.3503C135.988 40.8398 135.748 40.453 135.392 40.19C135.037 39.9116 134.511 39.7723 133.814 39.7723C133.118 39.7723 132.584 39.9116 132.213 40.19C131.857 40.453 131.618 40.8398 131.494 41.3503C131.37 41.8454 131.308 42.441 131.308 43.1372V51.3753C131.308 52.0715 131.37 52.6826 131.494 53.2086C131.618 53.7191 131.857 54.1213 132.213 54.4153C132.584 54.6937 133.118 54.833 133.814 54.833ZM141.52 56.6895V37.8926H145.303C146.556 37.8926 147.592 38.0628 148.412 38.4032C149.232 38.7281 149.836 39.2618 150.222 40.0044C150.625 40.7315 150.826 41.6907 150.826 42.8819C150.826 43.609 150.748 44.2743 150.594 44.8776C150.439 45.4655 150.191 45.9683 149.851 46.386C149.511 46.7883 149.062 47.0822 148.505 47.2678L151.174 56.6895H148.644L146.185 47.8712H144.142V56.6895H141.52ZM144.142 45.9915H145.14C145.883 45.9915 146.486 45.8987 146.95 45.713C147.414 45.5274 147.755 45.2102 147.971 44.7616C148.188 44.313 148.296 43.6864 148.296 42.8819C148.296 41.7835 148.095 40.9945 147.693 40.5149C147.291 40.0199 146.494 39.7723 145.303 39.7723H144.142V45.9915ZM155.619 56.6895V39.8419H152.44V37.8926H161.328V39.8419H158.241V56.6895H155.619ZM173.246 56.8983C171.978 56.8983 170.964 56.6508 170.206 56.1557C169.448 55.6607 168.907 54.9567 168.582 54.044C168.257 53.1157 168.095 52.0328 168.095 50.7951V43.6709C168.095 42.4333 168.257 41.3735 168.582 40.4917C168.922 39.5944 169.464 38.9137 170.206 38.4496C170.964 37.97 171.978 37.7302 173.246 37.7302C174.515 37.7302 175.521 37.97 176.263 38.4496C177.006 38.9292 177.539 39.6099 177.864 40.4917C178.205 41.3735 178.375 42.4333 178.375 43.6709V50.8184C178.375 52.0405 178.205 53.108 177.864 54.0208C177.539 54.9335 177.006 55.6452 176.263 56.1557C175.521 56.6508 174.515 56.8983 173.246 56.8983ZM173.246 54.833C173.943 54.833 174.469 54.6937 174.824 54.4153C175.18 54.1213 175.42 53.7191 175.544 53.2086C175.667 52.6826 175.729 52.0715 175.729 51.3753V43.1372C175.729 42.441 175.667 41.8454 175.544 41.3503C175.42 40.8398 175.18 40.453 174.824 40.19C174.469 39.9116 173.943 39.7723 173.246 39.7723C172.55 39.7723 172.016 39.9116 171.645 40.19C171.289 40.453 171.05 40.8398 170.926 41.3503C170.802 41.8454 170.74 42.441 170.74 43.1372V51.3753C170.74 52.0715 170.802 52.6826 170.926 53.2086C171.05 53.7191 171.289 54.1213 171.645 54.4153C172.016 54.6937 172.55 54.833 173.246 54.833ZM180.952 56.6895V37.8926H184.735C185.988 37.8926 187.024 38.0628 187.844 38.4032C188.664 38.7281 189.268 39.2618 189.654 40.0044C190.057 40.7315 190.258 41.6907 190.258 42.8819C190.258 43.609 190.18 44.2743 190.026 44.8776C189.871 45.4655 189.623 45.9683 189.283 46.386C188.943 46.7883 188.494 47.0822 187.937 47.2678L190.606 56.6895H188.076L185.617 47.8712H183.574V56.6895H180.952ZM183.574 45.9915H184.572C185.315 45.9915 185.918 45.8987 186.382 45.713C186.846 45.5274 187.187 45.2102 187.403 44.7616C187.62 44.313 187.728 43.6864 187.728 42.8819C187.728 41.7835 187.527 40.9945 187.125 40.5149C186.723 40.0199 185.926 39.7723 184.735 39.7723H183.574V45.9915ZM197.464 56.9215C196.289 56.9215 195.345 56.674 194.633 56.1789C193.937 55.6684 193.427 54.9335 193.102 53.9744C192.792 53.0152 192.638 51.8626 192.638 50.5167V44.2279C192.638 42.851 192.777 41.6829 193.055 40.7238C193.349 39.7491 193.86 39.0065 194.587 38.496C195.33 37.9855 196.358 37.7302 197.673 37.7302C198.849 37.7302 199.793 37.9313 200.504 38.3336C201.232 38.7203 201.758 39.3237 202.082 40.1436C202.407 40.9481 202.57 41.9692 202.57 43.2068V43.903H200.11V43.3228C200.11 42.5029 200.056 41.8377 199.947 41.3271C199.839 40.8011 199.615 40.4144 199.275 40.1668C198.95 39.9038 198.431 39.7723 197.72 39.7723C196.946 39.7723 196.382 39.9502 196.026 40.3061C195.685 40.6619 195.469 41.1492 195.376 41.768C195.299 42.3714 195.26 43.0598 195.26 43.8334V50.7951C195.26 51.6924 195.322 52.4428 195.446 53.0461C195.585 53.6495 195.84 54.0981 196.211 54.3921C196.583 54.686 197.109 54.833 197.789 54.833C198.47 54.833 198.996 54.6705 199.367 54.3457C199.739 54.0208 199.994 53.5412 200.133 52.9069C200.272 52.2726 200.342 51.4836 200.342 50.5399V49.2403H197.952V47.3839H202.709V56.6895H201.061L200.806 54.5313C200.559 55.2275 200.172 55.7999 199.646 56.2485C199.12 56.6972 198.393 56.9215 197.464 56.9215ZM204.383 56.6895L208.375 37.8926H210.904L214.919 56.6895H212.436L211.577 51.9554H207.748L206.843 56.6895H204.383ZM208.096 50.0758H211.229L209.651 41.6056L208.096 50.0758ZM216.826 56.6895V37.8926H218.613L223.95 50.3774V37.8926H226.132V56.6895H224.461L219.054 43.8566V56.6895H216.826ZM229.226 56.6895V37.8926H231.801V56.6895H229.226ZM239.275 56.8983C238.192 56.8983 237.287 56.6662 236.56 56.2021C235.848 55.738 235.307 55.096 234.935 54.276C234.564 53.4561 234.347 52.5046 234.286 51.4217L236.606 50.7951C236.653 51.4604 236.753 52.1024 236.908 52.7212C237.078 53.3401 237.349 53.8506 237.72 54.2528C238.091 54.6396 238.61 54.833 239.275 54.833C239.956 54.833 240.466 54.6473 240.806 54.276C241.162 53.8893 241.34 53.3401 241.34 52.6284C241.34 51.7775 241.147 51.0968 240.76 50.5863C240.373 50.0603 239.886 49.5343 239.298 49.0083L236.142 46.2236C235.523 45.6821 235.067 45.0942 234.773 44.4599C234.479 43.8102 234.332 43.0134 234.332 42.0697C234.332 40.6928 234.726 39.6254 235.515 38.8673C236.304 38.1092 237.38 37.7302 238.741 37.7302C239.484 37.7302 240.133 37.8308 240.69 38.0319C241.263 38.2175 241.735 38.5115 242.106 38.9137C242.493 39.3159 242.794 39.8265 243.011 40.4453C243.243 41.0487 243.398 41.7603 243.475 42.5802L241.247 43.1836C241.201 42.5648 241.108 42.0001 240.969 41.4896C240.83 40.9636 240.582 40.5459 240.226 40.2364C239.886 39.9116 239.391 39.7491 238.741 39.7491C238.091 39.7491 237.581 39.927 237.21 40.2829C236.854 40.6232 236.676 41.1337 236.676 41.8144C236.676 42.3869 236.769 42.8587 236.954 43.23C237.155 43.6013 237.473 43.9803 237.906 44.3671L241.085 47.1518C241.797 47.7706 242.423 48.5132 242.965 49.3796C243.506 50.2305 243.777 51.2438 243.777 52.4196C243.777 53.3478 243.583 54.1523 243.197 54.833C242.81 55.4982 242.276 56.0087 241.595 56.3646C240.93 56.7204 240.157 56.8983 239.275 56.8983ZM244.79 56.6895L248.781 37.8926H251.311L255.325 56.6895H252.842L251.984 51.9554H248.155L247.25 56.6895H244.79ZM248.503 50.0758H251.636L250.058 41.6056L248.503 50.0758ZM258.55 56.6895V39.8419H255.371V37.8926H264.259V39.8419H261.172V56.6895H258.55ZM266.21 56.6895V37.8926H268.786V56.6895H266.21ZM276.631 56.8983C275.362 56.8983 274.349 56.6508 273.591 56.1557C272.833 55.6607 272.291 54.9567 271.966 54.044C271.641 53.1157 271.479 52.0328 271.479 50.7951V43.6709C271.479 42.4333 271.641 41.3735 271.966 40.4917C272.307 39.5944 272.848 38.9137 273.591 38.4496C274.349 37.97 275.362 37.7302 276.631 37.7302C277.899 37.7302 278.905 37.97 279.647 38.4496C280.39 38.9292 280.924 39.6099 281.249 40.4917C281.589 41.3735 281.759 42.4333 281.759 43.6709V50.8184C281.759 52.0405 281.589 53.108 281.249 54.0208C280.924 54.9335 280.39 55.6452 279.647 56.1557C278.905 56.6508 277.899 56.8983 276.631 56.8983ZM276.631 54.833C277.327 54.833 277.853 54.6937 278.209 54.4153C278.564 54.1213 278.804 53.7191 278.928 53.2086C279.052 52.6826 279.114 52.0715 279.114 51.3753V43.1372C279.114 42.441 279.052 41.8454 278.928 41.3503C278.804 40.8398 278.564 40.453 278.209 40.19C277.853 39.9116 277.327 39.7723 276.631 39.7723C275.934 39.7723 275.401 39.9116 275.029 40.19C274.674 40.453 274.434 40.8398 274.31 41.3503C274.186 41.8454 274.124 42.441 274.124 43.1372V51.3753C274.124 52.0715 274.186 52.6826 274.31 53.2086C274.434 53.7191 274.674 54.1213 275.029 54.4153C275.401 54.6937 275.934 54.833 276.631 54.833ZM284.336 56.6895V37.8926H286.123L291.461 50.3774V37.8926H293.642V56.6895H291.971L286.564 43.8566V56.6895H284.336ZM301.029 56.8983C299.946 56.8983 299.041 56.6662 298.314 56.2021C297.602 55.738 297.061 55.096 296.689 54.276C296.318 53.4561 296.102 52.5046 296.04 51.4217L298.36 50.7951C298.407 51.4604 298.507 52.1024 298.662 52.7212C298.832 53.3401 299.103 53.8506 299.474 54.2528C299.845 54.6396 300.364 54.833 301.029 54.833C301.71 54.833 302.22 54.6473 302.561 54.276C302.916 53.8893 303.094 53.3401 303.094 52.6284C303.094 51.7775 302.901 51.0968 302.514 50.5863C302.127 50.0603 301.64 49.5343 301.052 49.0083L297.896 46.2236C297.277 45.6821 296.821 45.0942 296.527 44.4599C296.233 43.8102 296.086 43.0134 296.086 42.0697C296.086 40.6928 296.481 39.6254 297.27 38.8673C298.059 38.1092 299.134 37.7302 300.495 37.7302C301.238 37.7302 301.888 37.8308 302.444 38.0319C303.017 38.2175 303.489 38.5115 303.86 38.9137C304.247 39.3159 304.548 39.8265 304.765 40.4453C304.997 41.0487 305.152 41.7603 305.229 42.5802L303.001 43.1836C302.955 42.5648 302.862 42.0001 302.723 41.4896C302.584 40.9636 302.336 40.5459 301.98 40.2364C301.64 39.9116 301.145 39.7491 300.495 39.7491C299.845 39.7491 299.335 39.927 298.964 40.2829C298.608 40.6232 298.43 41.1337 298.43 41.8144C298.43 42.3869 298.523 42.8587 298.708 43.23C298.909 43.6013 299.227 43.9803 299.66 44.3671L302.839 47.1518C303.551 47.7706 304.177 48.5132 304.719 49.3796C305.26 50.2305 305.531 51.2438 305.531 52.4196C305.531 53.3478 305.337 54.1523 304.951 54.833C304.564 55.4982 304.03 56.0087 303.35 56.3646C302.684 56.7204 301.911 56.8983 301.029 56.8983Z" fill="#0099FF"/>
<path d="M98.7011 76.9662C98.1596 76.9662 97.7071 76.8502 97.3435 76.6182C96.9877 76.3861 96.717 76.0651 96.5313 75.6551C96.3457 75.2451 96.2374 74.7694 96.2064 74.2279L97.3667 73.9147C97.3899 74.2473 97.4402 74.5683 97.5176 74.8777C97.6026 75.1871 97.738 75.4424 97.9237 75.6435C98.1093 75.8369 98.3684 75.9336 98.7011 75.9336C99.0414 75.9336 99.2967 75.8408 99.4669 75.6551C99.6448 75.4617 99.7337 75.1871 99.7337 74.8313C99.7337 74.4059 99.637 74.0655 99.4437 73.8102C99.2503 73.5472 99.0066 73.2842 98.7127 73.0212L97.1347 71.6289C96.8252 71.3581 96.5971 71.0642 96.4501 70.7471C96.3031 70.4222 96.2296 70.0238 96.2296 69.5519C96.2296 68.8635 96.4269 68.3298 96.8214 67.9507C97.2159 67.5717 97.7535 67.3822 98.4342 67.3822C98.8055 67.3822 99.1304 67.4325 99.4088 67.533C99.695 67.6259 99.931 67.7728 100.117 67.9739C100.31 68.1751 100.461 68.4303 100.569 68.7397C100.685 69.0414 100.763 69.3972 100.801 69.8072L99.6873 70.1089C99.6641 69.7995 99.6177 69.5171 99.5481 69.2619C99.4785 68.9989 99.3547 68.79 99.1768 68.6353C99.0066 68.4729 98.7591 68.3916 98.4342 68.3916C98.1093 68.3916 97.854 68.4806 97.6684 68.6585C97.4905 68.8287 97.4015 69.084 97.4015 69.4243C97.4015 69.7105 97.4479 69.9464 97.5408 70.1321C97.6413 70.3177 97.7999 70.5073 98.0165 70.7006L99.6061 72.093C99.9619 72.4024 100.275 72.7737 100.546 73.2069C100.817 73.6323 100.952 74.139 100.952 74.7269C100.952 75.191 100.855 75.5932 100.662 75.9336C100.469 76.2662 100.202 76.5215 99.8614 76.6994C99.5287 76.8773 99.142 76.9662 98.7011 76.9662ZM103.721 76.9546C103.195 76.9546 102.789 76.8541 102.503 76.653C102.217 76.4441 102.016 76.1424 101.899 75.7479C101.791 75.3457 101.737 74.8545 101.737 74.2744V72.7428C101.737 72.1471 101.795 71.6521 101.911 71.2576C102.027 70.8631 102.228 70.5653 102.514 70.3642C102.808 70.163 103.211 70.0625 103.721 70.0625C104.286 70.0625 104.7 70.1785 104.963 70.4106C105.233 70.6426 105.411 70.9791 105.496 71.42C105.582 71.8532 105.624 72.3753 105.624 72.9864V73.5318H102.979V74.8777C102.979 75.1484 103.002 75.3689 103.048 75.5391C103.102 75.7093 103.184 75.8369 103.292 75.922C103.408 75.9993 103.555 76.038 103.733 76.038C103.918 76.038 104.058 75.9955 104.15 75.9104C104.251 75.8175 104.317 75.6899 104.348 75.5275C104.386 75.3573 104.406 75.16 104.406 74.9357V74.5296H105.612V74.7849C105.612 75.4579 105.469 75.9877 105.183 76.3745C104.897 76.7613 104.41 76.9546 103.721 76.9546ZM102.979 72.8588H104.406V72.2554C104.406 71.977 104.39 71.7449 104.359 71.5593C104.328 71.3659 104.263 71.2228 104.162 71.1299C104.069 71.0294 103.918 70.9791 103.71 70.9791C103.508 70.9791 103.354 71.0255 103.245 71.1183C103.145 71.2112 103.075 71.3697 103.037 71.5941C102.998 71.8107 102.979 72.1123 102.979 72.4991V72.8588ZM108.535 76.9546C108.187 76.9546 107.905 76.8889 107.688 76.7574C107.479 76.6259 107.325 76.4402 107.224 76.2004C107.131 75.9607 107.085 75.6783 107.085 75.3534V70.9791H106.377V70.1553H107.085V68.1944H108.326V70.1553H109.405V70.9791H108.326V75.2722C108.326 75.5352 108.369 75.7247 108.454 75.8408C108.539 75.949 108.702 76.0032 108.941 76.0032C109.003 76.0032 109.073 75.9993 109.15 75.9916C109.235 75.9839 109.316 75.9761 109.394 75.9684V76.885C109.239 76.9082 109.096 76.9237 108.965 76.9314C108.833 76.9469 108.69 76.9546 108.535 76.9546ZM113.932 76.9546C113.669 76.9546 113.464 76.885 113.317 76.7458C113.17 76.6066 113.066 76.4325 113.004 76.2237C112.95 76.0148 112.923 75.8021 112.923 75.5855V70.1553H114.164V75.2142C114.164 75.454 114.199 75.6435 114.269 75.7827C114.338 75.9142 114.481 75.98 114.698 75.98C114.837 75.98 114.98 75.9413 115.127 75.864C115.282 75.7789 115.429 75.6783 115.568 75.5623V70.1553H116.81V76.8618H115.568V76.2004C115.352 76.4093 115.104 76.5872 114.826 76.7342C114.555 76.8812 114.257 76.9546 113.932 76.9546ZM118.079 79.0664V70.1553H119.321V70.689C119.468 70.5189 119.646 70.3719 119.855 70.2481C120.063 70.1244 120.311 70.0625 120.597 70.0625C120.945 70.0625 121.22 70.1553 121.421 70.3409C121.63 70.5189 121.785 70.7471 121.885 71.0255C121.986 71.2963 122.051 71.5747 122.082 71.8609C122.113 72.1394 122.129 72.3792 122.129 72.5803V74.2047C122.129 74.6766 122.082 75.1252 121.99 75.5507C121.897 75.9684 121.727 76.3087 121.479 76.5717C121.239 76.827 120.899 76.9546 120.458 76.9546C120.218 76.9546 120.005 76.8966 119.82 76.7806C119.634 76.6568 119.468 76.5176 119.321 76.3629V79.0664H118.079ZM120.214 75.98C120.431 75.98 120.586 75.9026 120.678 75.7479C120.771 75.5855 120.829 75.3689 120.852 75.0982C120.876 74.8274 120.887 74.5296 120.887 74.2047V72.5803C120.887 72.3018 120.872 72.0466 120.841 71.8145C120.81 71.5747 120.744 71.3852 120.644 71.246C120.543 71.1067 120.385 71.0371 120.168 71.0371C120.005 71.0371 119.851 71.0719 119.704 71.1416C119.557 71.2112 119.429 71.2924 119.321 71.3852V75.6783C119.437 75.7634 119.568 75.8369 119.715 75.8988C119.862 75.9529 120.029 75.98 120.214 75.98ZM128.311 76.9546C128.071 76.9546 127.855 76.8966 127.661 76.7806C127.476 76.6568 127.313 76.5215 127.174 76.3745V76.8618H125.932V67.4634H127.174V70.689C127.321 70.5189 127.495 70.3719 127.696 70.2481C127.905 70.1244 128.152 70.0625 128.439 70.0625C128.787 70.0625 129.061 70.1553 129.262 70.3409C129.471 70.5189 129.626 70.7471 129.726 71.0255C129.827 71.2963 129.893 71.5747 129.924 71.8609C129.955 72.1394 129.97 72.3792 129.97 72.5803V74.2047C129.97 74.6766 129.924 75.1252 129.831 75.5507C129.738 75.9684 129.572 76.3087 129.332 76.5717C129.092 76.827 128.752 76.9546 128.311 76.9546ZM128.056 75.98C128.272 75.98 128.427 75.9026 128.52 75.7479C128.613 75.5855 128.671 75.3689 128.694 75.0982C128.717 74.8274 128.729 74.5296 128.729 74.2047V72.5803C128.729 72.3018 128.713 72.0466 128.682 71.8145C128.651 71.5747 128.586 71.3852 128.485 71.246C128.384 71.1067 128.226 71.0371 128.009 71.0371C127.847 71.0371 127.692 71.0719 127.545 71.1416C127.406 71.2112 127.282 71.2885 127.174 71.3736V75.6783C127.282 75.7634 127.41 75.8369 127.557 75.8988C127.711 75.9529 127.878 75.98 128.056 75.98ZM130.994 78.5442V77.5928C131.296 77.5928 131.536 77.5773 131.714 77.5464C131.892 77.5232 132.019 77.4729 132.097 77.3956C132.174 77.3259 132.213 77.2254 132.213 77.0939C132.213 77.0243 132.186 76.8696 132.131 76.6298C132.077 76.39 132.019 76.1347 131.957 75.864L130.611 70.1553H131.865L132.77 75.1678L133.64 70.1553H134.893L133.292 77.2331C133.222 77.558 133.094 77.8133 132.909 77.9989C132.723 78.1923 132.483 78.3315 132.189 78.4166C131.903 78.5017 131.555 78.5442 131.145 78.5442H130.994ZM138.375 76.8618L138.549 67.4634H139.837L141.496 75.0866L143.167 67.4634H144.444L144.618 76.8618H143.562L143.457 70.0393L141.868 76.8618H141.125L139.547 70.0393L139.443 76.8618H138.375ZM146.035 76.8618V70.1553H147.276V76.8618H146.035ZM146.035 69.1574V67.8579H147.276V69.1574H146.035ZM148.605 76.8618V70.1553H149.847V70.8167C150.071 70.6078 150.319 70.4299 150.589 70.2829C150.86 70.136 151.158 70.0625 151.483 70.0625C151.753 70.0625 151.958 70.1321 152.098 70.2713C152.245 70.4106 152.345 70.5846 152.399 70.7935C152.461 71.0023 152.492 71.215 152.492 71.4316V76.8618H151.251V71.7913C151.251 71.5515 151.216 71.3659 151.146 71.2344C151.077 71.1029 150.933 71.0371 150.717 71.0371C150.578 71.0371 150.431 71.0797 150.276 71.1648C150.129 71.2421 149.986 71.3388 149.847 71.4548V76.8618H148.605ZM153.785 76.8618V70.1553H155.027V76.8618H153.785ZM153.785 69.1574V67.8579H155.027V69.1574H153.785ZM157.91 76.9546C157.361 76.9546 156.92 76.7845 156.588 76.4441C156.255 76.096 156.066 75.6396 156.019 75.075L157.052 74.7617C157.114 75.1871 157.218 75.5081 157.365 75.7247C157.512 75.9336 157.729 76.038 158.015 76.038C158.239 76.038 158.409 75.9761 158.525 75.8524C158.641 75.7209 158.699 75.5468 158.699 75.3302C158.699 75.1368 158.657 74.9628 158.572 74.8081C158.487 74.6534 158.347 74.4948 158.154 74.3324L157.005 73.3461C156.773 73.145 156.576 72.9207 156.414 72.6731C156.259 72.4256 156.182 72.1046 156.182 71.7101C156.182 71.3543 156.251 71.0565 156.39 70.8167C156.537 70.5691 156.738 70.3835 156.994 70.2597C157.257 70.1282 157.562 70.0625 157.91 70.0625C158.444 70.0625 158.85 70.2365 159.129 70.5846C159.415 70.925 159.577 71.3388 159.616 71.8261L158.781 72.1394C158.75 71.9073 158.703 71.7062 158.641 71.5361C158.579 71.3581 158.494 71.2228 158.386 71.1299C158.278 71.0294 158.135 70.9791 157.957 70.9791C157.756 70.9791 157.593 71.0487 157.469 71.188C157.353 71.3195 157.295 71.478 157.295 71.6637C157.295 71.7797 157.319 71.8957 157.365 72.0118C157.419 72.1201 157.508 72.2284 157.632 72.3367L158.815 73.4273C158.978 73.5743 159.129 73.7329 159.268 73.9031C159.415 74.0732 159.535 74.2666 159.628 74.4832C159.72 74.6998 159.767 74.9512 159.767 75.2374C159.767 75.6164 159.689 75.9336 159.535 76.1888C159.38 76.4441 159.163 76.6375 158.885 76.769C158.607 76.8928 158.282 76.9546 157.91 76.9546ZM162.482 76.9546C162.134 76.9546 161.852 76.8889 161.635 76.7574C161.426 76.6259 161.272 76.4402 161.171 76.2004C161.078 75.9607 161.032 75.6783 161.032 75.3534V70.9791H160.324V70.1553H161.032V68.1944H162.273V70.1553H163.352V70.9791H162.273V75.2722C162.273 75.5352 162.316 75.7247 162.401 75.8408C162.486 75.949 162.649 76.0032 162.888 76.0032C162.95 76.0032 163.02 75.9993 163.097 75.9916C163.182 75.9839 163.263 75.9761 163.341 75.9684V76.885C163.186 76.9082 163.043 76.9237 162.912 76.9314C162.78 76.9469 162.637 76.9546 162.482 76.9546ZM164.299 76.8618V70.1553H165.541V71.1067C165.788 70.6968 166.036 70.4222 166.284 70.2829C166.531 70.1437 166.779 70.0741 167.026 70.0741C167.057 70.0741 167.084 70.0741 167.107 70.0741C167.138 70.0741 167.177 70.0779 167.223 70.0857V71.4548C167.131 71.4162 167.022 71.3852 166.899 71.362C166.782 71.3311 166.663 71.3156 166.539 71.3156C166.345 71.3156 166.168 71.362 166.005 71.4548C165.85 71.5399 165.696 71.7101 165.541 71.9654V76.8618H164.299ZM167.888 78.5442V77.5928C168.19 77.5928 168.43 77.5773 168.607 77.5464C168.785 77.5232 168.913 77.4729 168.99 77.3956C169.068 77.3259 169.106 77.2254 169.106 77.0939C169.106 77.0243 169.079 76.8696 169.025 76.6298C168.971 76.39 168.913 76.1347 168.851 75.864L167.505 70.1553H168.758L169.663 75.1678L170.534 70.1553H171.787L170.186 77.2331C170.116 77.558 169.988 77.8133 169.803 77.9989C169.617 78.1923 169.377 78.3315 169.083 78.4166C168.797 78.5017 168.449 78.5442 168.039 78.5442H167.888ZM177.033 76.9546C176.538 76.9546 176.147 76.8541 175.861 76.653C175.575 76.4518 175.37 76.1656 175.246 75.7943C175.13 75.423 175.072 74.986 175.072 74.4832V72.5339C175.072 72.0311 175.13 71.5941 175.246 71.2228C175.37 70.8515 175.575 70.5653 175.861 70.3642C176.147 70.163 176.538 70.0625 177.033 70.0625C177.528 70.0625 177.914 70.163 178.193 70.3642C178.479 70.5653 178.68 70.8515 178.796 71.2228C178.92 71.5941 178.982 72.0311 178.982 72.5339V74.4832C178.982 74.986 178.92 75.423 178.796 75.7943C178.68 76.1656 178.479 76.4518 178.193 76.653C177.914 76.8541 177.528 76.9546 177.033 76.9546ZM177.033 76.038C177.272 76.038 177.439 75.9684 177.532 75.8292C177.632 75.6899 177.69 75.5081 177.706 75.2838C177.729 75.0518 177.74 74.812 177.74 74.5644V72.4643C177.74 72.209 177.729 71.9692 177.706 71.7449C177.69 71.5206 177.632 71.3388 177.532 71.1996C177.439 71.0526 177.272 70.9791 177.033 70.9791C176.793 70.9791 176.623 71.0526 176.522 71.1996C176.422 71.3388 176.36 71.5206 176.336 71.7449C176.321 71.9692 176.313 72.209 176.313 72.4643V74.5644C176.313 74.812 176.321 75.0518 176.336 75.2838C176.36 75.5081 176.422 75.6899 176.522 75.8292C176.623 75.9684 176.793 76.038 177.033 76.038ZM180.511 76.8618V71.0719H179.711V70.1553H180.511V69.8072C180.511 69.3895 180.542 69.0337 180.604 68.7397C180.674 68.4381 180.813 68.206 181.022 68.0436C181.231 67.8811 181.544 67.7999 181.962 67.7999C182.116 67.7999 182.252 67.8076 182.368 67.8231C182.491 67.8308 182.627 67.8502 182.774 67.8811V68.7861C182.704 68.7707 182.627 68.7591 182.542 68.7513C182.457 68.7359 182.379 68.7281 182.31 68.7281C182.07 68.7281 181.915 68.8094 181.846 68.9718C181.784 69.1265 181.753 69.3354 181.753 69.5984V70.1553H182.774V71.0719H181.753V76.8618H180.511ZM188.559 76.9662C187.894 76.9662 187.376 76.827 187.005 76.5485C186.641 76.2701 186.386 75.8949 186.239 75.423C186.1 74.9512 186.03 74.4252 186.03 73.845V70.5266C186.03 69.8923 186.1 69.3392 186.239 68.8674C186.386 68.3955 186.641 68.032 187.005 67.7767C187.376 67.5137 187.894 67.3822 188.559 67.3822C189.147 67.3822 189.611 67.4905 189.952 67.7071C190.3 67.9237 190.547 68.2331 190.694 68.6353C190.849 69.0375 190.926 69.521 190.926 70.0857V70.8283H189.685V70.1669C189.685 69.8188 189.666 69.5133 189.627 69.2503C189.596 68.9795 189.503 68.7707 189.348 68.6237C189.194 68.4767 188.935 68.4033 188.571 68.4033C188.2 68.4033 187.929 68.4845 187.759 68.6469C187.589 68.8016 187.476 69.0259 187.422 69.3199C187.376 69.6061 187.353 69.9426 187.353 70.3293V74.0539C187.353 74.5258 187.391 74.9009 187.469 75.1794C187.546 75.4501 187.674 75.6435 187.852 75.7595C188.029 75.8756 188.269 75.9336 188.571 75.9336C188.927 75.9336 189.182 75.8562 189.337 75.7015C189.491 75.5391 189.588 75.3186 189.627 75.0402C189.666 74.7617 189.685 74.4368 189.685 74.0655V73.3693H190.926V74.0655C190.926 74.6379 190.857 75.1446 190.718 75.5855C190.578 76.0187 190.338 76.359 189.998 76.6066C189.658 76.8463 189.178 76.9662 188.559 76.9662ZM193.916 76.9546C193.421 76.9546 193.03 76.8541 192.744 76.653C192.458 76.4518 192.253 76.1656 192.129 75.7943C192.013 75.423 191.955 74.986 191.955 74.4832V72.5339C191.955 72.0311 192.013 71.5941 192.129 71.2228C192.253 70.8515 192.458 70.5653 192.744 70.3642C193.03 70.163 193.421 70.0625 193.916 70.0625C194.411 70.0625 194.798 70.163 195.076 70.3642C195.362 70.5653 195.563 70.8515 195.679 71.2228C195.803 71.5941 195.865 72.0311 195.865 72.5339V74.4832C195.865 74.986 195.803 75.423 195.679 75.7943C195.563 76.1656 195.362 76.4518 195.076 76.653C194.798 76.8541 194.411 76.9546 193.916 76.9546ZM193.916 76.038C194.156 76.038 194.322 75.9684 194.415 75.8292C194.515 75.6899 194.573 75.5081 194.589 75.2838C194.612 75.0518 194.624 74.812 194.624 74.5644V72.4643C194.624 72.209 194.612 71.9692 194.589 71.7449C194.573 71.5206 194.515 71.3388 194.415 71.1996C194.322 71.0526 194.156 70.9791 193.916 70.9791C193.676 70.9791 193.506 71.0526 193.405 71.1996C193.305 71.3388 193.243 71.5206 193.22 71.7449C193.204 71.9692 193.196 72.209 193.196 72.4643V74.5644C193.196 74.812 193.204 75.0518 193.22 75.2838C193.243 75.5081 193.305 75.6899 193.405 75.8292C193.506 75.9684 193.676 76.038 193.916 76.038ZM197 76.8618V70.1553H198.149V70.7935C198.373 70.5382 198.621 70.3487 198.891 70.2249C199.162 70.1012 199.44 70.0393 199.727 70.0393C199.974 70.0393 200.195 70.1012 200.388 70.2249C200.589 70.3487 200.732 70.5691 200.817 70.8863C201.057 70.5923 201.316 70.3796 201.595 70.2481C201.881 70.1089 202.179 70.0393 202.488 70.0393C202.705 70.0393 202.902 70.0934 203.08 70.2017C203.258 70.3023 203.401 70.4686 203.509 70.7006C203.618 70.925 203.672 71.2228 203.672 71.5941V76.8618H202.535V71.6753C202.535 71.3504 202.48 71.1338 202.372 71.0255C202.272 70.9095 202.132 70.8515 201.954 70.8515C201.784 70.8515 201.606 70.9018 201.421 71.0023C201.235 71.0951 201.065 71.2266 200.91 71.3968C200.91 71.4278 200.91 71.4587 200.91 71.4896C200.91 71.5206 200.91 71.5554 200.91 71.5941V76.8618H199.773V71.6753C199.773 71.3504 199.719 71.1338 199.611 71.0255C199.51 70.9095 199.371 70.8515 199.193 70.8515C199.023 70.8515 198.845 70.9018 198.659 71.0023C198.481 71.0951 198.311 71.2266 198.149 71.3968V76.8618H197ZM204.886 76.8618V70.1553H206.035V70.7935C206.259 70.5382 206.507 70.3487 206.778 70.2249C207.048 70.1012 207.327 70.0393 207.613 70.0393C207.861 70.0393 208.081 70.1012 208.274 70.2249C208.476 70.3487 208.619 70.5691 208.704 70.8863C208.944 70.5923 209.203 70.3796 209.481 70.2481C209.767 70.1089 210.065 70.0393 210.375 70.0393C210.591 70.0393 210.788 70.0934 210.966 70.2017C211.144 70.3023 211.287 70.4686 211.396 70.7006C211.504 70.925 211.558 71.2228 211.558 71.5941V76.8618H210.421V71.6753C210.421 71.3504 210.367 71.1338 210.259 71.0255C210.158 70.9095 210.019 70.8515 209.841 70.8515C209.671 70.8515 209.493 70.9018 209.307 71.0023C209.121 71.0951 208.951 71.2266 208.797 71.3968C208.797 71.4278 208.797 71.4587 208.797 71.4896C208.797 71.5206 208.797 71.5554 208.797 71.5941V76.8618H207.659V71.6753C207.659 71.3504 207.605 71.1338 207.497 71.0255C207.396 70.9095 207.257 70.8515 207.079 70.8515C206.909 70.8515 206.731 70.9018 206.546 71.0023C206.368 71.0951 206.197 71.2266 206.035 71.3968V76.8618H204.886ZM214.629 76.9546C214.103 76.9546 213.697 76.8541 213.411 76.653C213.125 76.4441 212.924 76.1424 212.808 75.7479C212.699 75.3457 212.645 74.8545 212.645 74.2744V72.7428C212.645 72.1471 212.703 71.6521 212.819 71.2576C212.935 70.8631 213.136 70.5653 213.423 70.3642C213.716 70.163 214.119 70.0625 214.629 70.0625C215.194 70.0625 215.608 70.1785 215.871 70.4106C216.141 70.6426 216.319 70.9791 216.404 71.42C216.49 71.8532 216.532 72.3753 216.532 72.9864V73.5318H213.887V74.8777C213.887 75.1484 213.91 75.3689 213.956 75.5391C214.01 75.7093 214.092 75.8369 214.2 75.922C214.316 75.9993 214.463 76.038 214.641 76.038C214.826 76.038 214.966 75.9955 215.059 75.9104C215.159 75.8175 215.225 75.6899 215.256 75.5275C215.294 75.3573 215.314 75.16 215.314 74.9357V74.5296H216.521V74.7849C216.521 75.4579 216.377 75.9877 216.091 76.3745C215.805 76.7613 215.318 76.9546 214.629 76.9546ZM213.887 72.8588H215.314V72.2554C215.314 71.977 215.298 71.7449 215.267 71.5593C215.236 71.3659 215.171 71.2228 215.07 71.1299C214.977 71.0294 214.826 70.9791 214.618 70.9791C214.417 70.9791 214.262 71.0255 214.154 71.1183C214.053 71.2112 213.983 71.3697 213.945 71.5941C213.906 71.8107 213.887 72.1123 213.887 72.4991V72.8588ZM217.691 76.8618V70.1553H218.933V71.1067C219.18 70.6968 219.428 70.4222 219.675 70.2829C219.923 70.1437 220.17 70.0741 220.418 70.0741C220.449 70.0741 220.476 70.0741 220.499 70.0741C220.53 70.0741 220.569 70.0779 220.615 70.0857V71.4548C220.522 71.4162 220.414 71.3852 220.29 71.362C220.174 71.3311 220.054 71.3156 219.931 71.3156C219.737 71.3156 219.559 71.362 219.397 71.4548C219.242 71.5399 219.087 71.7101 218.933 71.9654V76.8618H217.691ZM223.218 76.9546C222.668 76.9546 222.251 76.8463 221.964 76.6298C221.686 76.4054 221.496 76.0922 221.396 75.6899C221.303 75.2877 221.257 74.8197 221.257 74.286V72.7428C221.257 72.1781 221.307 71.6985 221.408 71.304C221.508 70.9018 221.698 70.5962 221.976 70.3874C222.262 70.1708 222.676 70.0625 223.218 70.0625C223.705 70.0625 224.08 70.1437 224.343 70.3061C224.614 70.4608 224.799 70.6968 224.9 71.0139C225.001 71.3233 225.051 71.7101 225.051 72.1742V72.5687H223.925V72.1626C223.925 71.8687 223.906 71.6366 223.867 71.4664C223.829 71.2963 223.759 71.1725 223.659 71.0951C223.558 71.0178 223.415 70.9791 223.229 70.9791C223.028 70.9791 222.873 71.0255 222.765 71.1183C222.657 71.2112 222.583 71.3697 222.545 71.5941C222.514 71.8107 222.498 72.1085 222.498 72.4875V74.5992C222.498 75.1717 222.552 75.5545 222.661 75.7479C222.769 75.9413 222.962 76.038 223.241 76.038C223.45 76.038 223.6 75.9916 223.693 75.8988C223.794 75.7982 223.856 75.659 223.879 75.4811C223.91 75.3032 223.925 75.102 223.925 74.8777V74.3324H225.051V74.7965C225.051 75.2451 224.997 75.6319 224.888 75.9568C224.788 76.2817 224.602 76.5292 224.331 76.6994C224.068 76.8696 223.697 76.9546 223.218 76.9546ZM228.011 76.9546C227.485 76.9546 227.079 76.8541 226.793 76.653C226.507 76.4441 226.306 76.1424 226.19 75.7479C226.081 75.3457 226.027 74.8545 226.027 74.2744V72.7428C226.027 72.1471 226.085 71.6521 226.201 71.2576C226.317 70.8631 226.518 70.5653 226.804 70.3642C227.098 70.163 227.501 70.0625 228.011 70.0625C228.576 70.0625 228.99 70.1785 229.253 70.4106C229.523 70.6426 229.701 70.9791 229.786 71.42C229.872 71.8532 229.914 72.3753 229.914 72.9864V73.5318H227.269V74.8777C227.269 75.1484 227.292 75.3689 227.338 75.5391C227.392 75.7093 227.474 75.8369 227.582 75.922C227.698 75.9993 227.845 76.038 228.023 76.038C228.208 76.038 228.348 75.9955 228.44 75.9104C228.541 75.8175 228.607 75.6899 228.638 75.5275C228.676 75.3573 228.696 75.16 228.696 74.9357V74.5296H229.902V74.7849C229.902 75.4579 229.759 75.9877 229.473 76.3745C229.187 76.7613 228.7 76.9546 228.011 76.9546ZM227.269 72.8588H228.696V72.2554C228.696 71.977 228.68 71.7449 228.649 71.5593C228.618 71.3659 228.553 71.2228 228.452 71.1299C228.359 71.0294 228.208 70.9791 228 70.9791C227.798 70.9791 227.644 71.0255 227.535 71.1183C227.435 71.2112 227.365 71.3697 227.327 71.5941C227.288 71.8107 227.269 72.1123 227.269 72.4991V72.8588ZM231.073 78.3818L230.876 77.8481C231.085 77.7785 231.247 77.6547 231.363 77.4768C231.487 77.3066 231.549 77.1016 231.549 76.8618H230.888V75.5275H232.164V76.8386C232.164 77.2486 232.075 77.5735 231.897 77.8133C231.719 78.0608 231.444 78.2503 231.073 78.3818ZM238.198 76.9778C237.61 76.9778 237.138 76.8541 236.782 76.6066C236.434 76.3513 236.179 75.9839 236.016 75.5043C235.862 75.0247 235.784 74.4484 235.784 73.7754V70.631C235.784 69.9426 235.854 69.3586 235.993 68.879C236.14 68.3916 236.396 68.0204 236.759 67.7651C237.13 67.5098 237.645 67.3822 238.302 67.3822C238.89 67.3822 239.362 67.4827 239.718 67.6839C240.081 67.8773 240.344 68.1789 240.507 68.5889C240.669 68.9911 240.751 69.5017 240.751 70.1205V70.4686H239.521V70.1785C239.521 69.7685 239.494 69.4359 239.439 69.1807C239.385 68.9176 239.273 68.7243 239.103 68.6005C238.94 68.469 238.681 68.4033 238.325 68.4033C237.939 68.4033 237.656 68.4922 237.478 68.6701C237.308 68.848 237.2 69.0917 237.154 69.4011C237.115 69.7028 237.096 70.047 237.096 70.4338V73.9147C237.096 74.3633 237.127 74.7385 237.188 75.0402C237.258 75.3418 237.386 75.5662 237.571 75.7131C237.757 75.8601 238.02 75.9336 238.36 75.9336C238.701 75.9336 238.964 75.8524 239.149 75.6899C239.335 75.5275 239.463 75.2877 239.532 74.9705C239.602 74.6534 239.637 74.2589 239.637 73.787V73.1373H238.442V72.209H240.82V76.8618H239.996L239.869 75.7827C239.745 76.1308 239.552 76.417 239.289 76.6414C239.026 76.8657 238.662 76.9778 238.198 76.9778ZM243.908 76.9546C243.413 76.9546 243.023 76.8541 242.736 76.653C242.45 76.4518 242.245 76.1656 242.121 75.7943C242.005 75.423 241.947 74.986 241.947 74.4832V72.5339C241.947 72.0311 242.005 71.5941 242.121 71.2228C242.245 70.8515 242.45 70.5653 242.736 70.3642C243.023 70.163 243.413 70.0625 243.908 70.0625C244.403 70.0625 244.79 70.163 245.069 70.3642C245.355 70.5653 245.556 70.8515 245.672 71.2228C245.796 71.5941 245.858 72.0311 245.858 72.5339V74.4832C245.858 74.986 245.796 75.423 245.672 75.7943C245.556 76.1656 245.355 76.4518 245.069 76.653C244.79 76.8541 244.403 76.9546 243.908 76.9546ZM243.908 76.038C244.148 76.038 244.314 75.9684 244.407 75.8292C244.508 75.6899 244.566 75.5081 244.581 75.2838C244.605 75.0518 244.616 74.812 244.616 74.5644V72.4643C244.616 72.209 244.605 71.9692 244.581 71.7449C244.566 71.5206 244.508 71.3388 244.407 71.1996C244.314 71.0526 244.148 70.9791 243.908 70.9791C243.669 70.9791 243.498 71.0526 243.398 71.1996C243.297 71.3388 243.235 71.5206 243.212 71.7449C243.197 71.9692 243.189 72.209 243.189 72.4643V74.5644C243.189 74.812 243.197 75.0518 243.212 75.2838C243.235 75.5081 243.297 75.6899 243.398 75.8292C243.498 75.9684 243.669 76.038 243.908 76.038ZM247.863 76.8618L246.54 70.1553H247.793L248.617 75.5507L249.452 70.1553H250.659L249.383 76.8618H247.863ZM253.313 76.9546C252.787 76.9546 252.381 76.8541 252.095 76.653C251.809 76.4441 251.608 76.1424 251.492 75.7479C251.383 75.3457 251.329 74.8545 251.329 74.2744V72.7428C251.329 72.1471 251.387 71.6521 251.503 71.2576C251.619 70.8631 251.82 70.5653 252.107 70.3642C252.401 70.163 252.803 70.0625 253.313 70.0625C253.878 70.0625 254.292 70.1785 254.555 70.4106C254.826 70.6426 255.004 70.9791 255.089 71.42C255.174 71.8532 255.216 72.3753 255.216 72.9864V73.5318H252.571V74.8777C252.571 75.1484 252.594 75.3689 252.64 75.5391C252.695 75.7093 252.776 75.8369 252.884 75.922C253 75.9993 253.147 76.038 253.325 76.038C253.511 76.038 253.65 75.9955 253.743 75.9104C253.843 75.8175 253.909 75.6899 253.94 75.5275C253.979 75.3573 253.998 75.16 253.998 74.9357V74.5296H255.205V74.7849C255.205 75.4579 255.062 75.9877 254.775 76.3745C254.489 76.7613 254.002 76.9546 253.313 76.9546ZM252.571 72.8588H253.998V72.2554C253.998 71.977 253.982 71.7449 253.952 71.5593C253.921 71.3659 253.855 71.2228 253.754 71.1299C253.661 71.0294 253.511 70.9791 253.302 70.9791C253.101 70.9791 252.946 71.0255 252.838 71.1183C252.737 71.2112 252.667 71.3697 252.629 71.5941C252.59 71.8107 252.571 72.1123 252.571 72.4991V72.8588ZM256.375 76.8618V70.1553H257.617V71.1067C257.864 70.6968 258.112 70.4222 258.359 70.2829C258.607 70.1437 258.855 70.0741 259.102 70.0741C259.133 70.0741 259.16 70.0741 259.183 70.0741C259.214 70.0741 259.253 70.0779 259.299 70.0857V71.4548C259.206 71.4162 259.098 71.3852 258.974 71.362C258.858 71.3311 258.738 71.3156 258.615 71.3156C258.421 71.3156 258.243 71.362 258.081 71.4548C257.926 71.5399 257.772 71.7101 257.617 71.9654V76.8618H256.375ZM260.068 76.8618V70.1553H261.31V70.8167C261.534 70.6078 261.782 70.4299 262.053 70.2829C262.323 70.136 262.621 70.0625 262.946 70.0625C263.217 70.0625 263.422 70.1321 263.561 70.2713C263.708 70.4106 263.808 70.5846 263.863 70.7935C263.924 71.0023 263.955 71.215 263.955 71.4316V76.8618H262.714V71.7913C262.714 71.5515 262.679 71.3659 262.609 71.2344C262.54 71.1029 262.397 71.0371 262.18 71.0371C262.041 71.0371 261.894 71.0797 261.739 71.1648C261.592 71.2421 261.449 71.3388 261.31 71.4548V76.8618H260.068ZM265.167 76.8618V70.1553H266.316V70.7935C266.54 70.5382 266.788 70.3487 267.059 70.2249C267.329 70.1012 267.608 70.0393 267.894 70.0393C268.142 70.0393 268.362 70.1012 268.555 70.2249C268.757 70.3487 268.9 70.5691 268.985 70.8863C269.225 70.5923 269.484 70.3796 269.762 70.2481C270.048 70.1089 270.346 70.0393 270.656 70.0393C270.872 70.0393 271.069 70.0934 271.247 70.2017C271.425 70.3023 271.568 70.4686 271.677 70.7006C271.785 70.925 271.839 71.2228 271.839 71.5941V76.8618H270.702V71.6753C270.702 71.3504 270.648 71.1338 270.54 71.0255C270.439 70.9095 270.3 70.8515 270.122 70.8515C269.952 70.8515 269.774 70.9018 269.588 71.0023C269.402 71.0951 269.232 71.2266 269.078 71.3968C269.078 71.4278 269.078 71.4587 269.078 71.4896C269.078 71.5206 269.078 71.5554 269.078 71.5941V76.8618H267.941V71.6753C267.941 71.3504 267.886 71.1338 267.778 71.0255C267.678 70.9095 267.538 70.8515 267.36 70.8515C267.19 70.8515 267.012 70.9018 266.827 71.0023C266.649 71.0951 266.479 71.2266 266.316 71.3968V76.8618H265.167ZM274.91 76.9546C274.384 76.9546 273.978 76.8541 273.692 76.653C273.406 76.4441 273.205 76.1424 273.089 75.7479C272.98 75.3457 272.926 74.8545 272.926 74.2744V72.7428C272.926 72.1471 272.984 71.6521 273.1 71.2576C273.216 70.8631 273.417 70.5653 273.704 70.3642C273.998 70.163 274.4 70.0625 274.91 70.0625C275.475 70.0625 275.889 70.1785 276.152 70.4106C276.423 70.6426 276.6 70.9791 276.686 71.42C276.771 71.8532 276.813 72.3753 276.813 72.9864V73.5318H274.168V74.8777C274.168 75.1484 274.191 75.3689 274.237 75.5391C274.291 75.7093 274.373 75.8369 274.481 75.922C274.597 75.9993 274.744 76.038 274.922 76.038C275.108 76.038 275.247 75.9955 275.34 75.9104C275.44 75.8175 275.506 75.6899 275.537 75.5275C275.576 75.3573 275.595 75.16 275.595 74.9357V74.5296H276.802V74.7849C276.802 75.4579 276.658 75.9877 276.372 76.3745C276.086 76.7613 275.599 76.9546 274.91 76.9546ZM274.168 72.8588H275.595V72.2554C275.595 71.977 275.579 71.7449 275.548 71.5593C275.518 71.3659 275.452 71.2228 275.351 71.1299C275.258 71.0294 275.108 70.9791 274.899 70.9791C274.698 70.9791 274.543 71.0255 274.435 71.1183C274.334 71.2112 274.264 71.3697 274.226 71.5941C274.187 71.8107 274.168 72.1123 274.168 72.4991V72.8588ZM277.937 76.8618V70.1553H279.179V70.8167C279.403 70.6078 279.651 70.4299 279.922 70.2829C280.192 70.136 280.49 70.0625 280.815 70.0625C281.086 70.0625 281.291 70.1321 281.43 70.2713C281.577 70.4106 281.677 70.5846 281.732 70.7935C281.794 71.0023 281.824 71.215 281.824 71.4316V76.8618H280.583V71.7913C280.583 71.5515 280.548 71.3659 280.479 71.2344C280.409 71.1029 280.266 71.0371 280.049 71.0371C279.91 71.0371 279.763 71.0797 279.608 71.1648C279.461 71.2421 279.318 71.3388 279.179 71.4548V76.8618H277.937ZM284.823 76.9546C284.475 76.9546 284.193 76.8889 283.976 76.7574C283.767 76.6259 283.613 76.4402 283.512 76.2004C283.419 75.9607 283.373 75.6783 283.373 75.3534V70.9791H282.665V70.1553H283.373V68.1944H284.614V70.1553H285.694V70.9791H284.614V75.2722C284.614 75.5352 284.657 75.7247 284.742 75.8408C284.827 75.949 284.99 76.0032 285.229 76.0032C285.291 76.0032 285.361 75.9993 285.438 75.9916C285.523 75.9839 285.605 75.9761 285.682 75.9684V76.885C285.527 76.9082 285.384 76.9237 285.253 76.9314C285.121 76.9469 284.978 76.9546 284.823 76.9546ZM291.102 76.9546C290.607 76.9546 290.216 76.8541 289.93 76.653C289.644 76.4518 289.439 76.1656 289.315 75.7943C289.199 75.423 289.141 74.986 289.141 74.4832V72.5339C289.141 72.0311 289.199 71.5941 289.315 71.2228C289.439 70.8515 289.644 70.5653 289.93 70.3642C290.216 70.163 290.607 70.0625 291.102 70.0625C291.597 70.0625 291.984 70.163 292.262 70.3642C292.549 70.5653 292.75 70.8515 292.866 71.2228C292.989 71.5941 293.051 72.0311 293.051 72.5339V74.4832C293.051 74.986 292.989 75.423 292.866 75.7943C292.75 76.1656 292.549 76.4518 292.262 76.653C291.984 76.8541 291.597 76.9546 291.102 76.9546ZM291.102 76.038C291.342 76.038 291.508 75.9684 291.601 75.8292C291.702 75.6899 291.76 75.5081 291.775 75.2838C291.798 75.0518 291.81 74.812 291.81 74.5644V72.4643C291.81 72.209 291.798 71.9692 291.775 71.7449C291.76 71.5206 291.702 71.3388 291.601 71.1996C291.508 71.0526 291.342 70.9791 291.102 70.9791C290.862 70.9791 290.692 71.0526 290.592 71.1996C290.491 71.3388 290.429 71.5206 290.406 71.7449C290.39 71.9692 290.383 72.209 290.383 72.4643V74.5644C290.383 74.812 290.39 75.0518 290.406 75.2838C290.429 75.5081 290.491 75.6899 290.592 75.8292C290.692 75.9684 290.862 76.038 291.102 76.038ZM294.581 76.8618V71.0719H293.78V70.1553H294.581V69.8072C294.581 69.3895 294.612 69.0337 294.673 68.7397C294.743 68.4381 294.882 68.206 295.091 68.0436C295.3 67.8811 295.613 67.7999 296.031 67.7999C296.186 67.7999 296.321 67.8076 296.437 67.8231C296.561 67.8308 296.696 67.8502 296.843 67.8811V68.7861C296.774 68.7707 296.696 68.7591 296.611 68.7513C296.526 68.7359 296.449 68.7281 296.379 68.7281C296.139 68.7281 295.985 68.8094 295.915 68.9718C295.853 69.1265 295.822 69.3354 295.822 69.5984V70.1553H296.843V71.0719H295.822V76.8618H294.581ZM300.343 76.8618V67.4634H301.631V76.8618H300.343ZM303.047 76.8618V70.1553H304.289V70.8167C304.513 70.6078 304.76 70.4299 305.031 70.2829C305.302 70.136 305.6 70.0625 305.925 70.0625C306.195 70.0625 306.4 70.1321 306.54 70.2713C306.686 70.4106 306.787 70.5846 306.841 70.7935C306.903 71.0023 306.934 71.215 306.934 71.4316V76.8618H305.692V71.7913C305.692 71.5515 305.658 71.3659 305.588 71.2344C305.518 71.1029 305.375 71.0371 305.159 71.0371C305.02 71.0371 304.873 71.0797 304.718 71.1648C304.571 71.2421 304.428 71.3388 304.289 71.4548V76.8618H303.047ZM309.701 76.9546C309.136 76.9546 308.715 76.7497 308.436 76.3397C308.158 75.922 308.018 75.2181 308.018 74.2279V72.9284C308.018 72.4179 308.061 71.946 308.146 71.5128C308.231 71.0719 308.39 70.72 308.622 70.457C308.862 70.194 309.21 70.0625 309.666 70.0625C309.89 70.0625 310.095 70.1128 310.281 70.2133C310.467 70.3139 310.633 70.4376 310.78 70.5846V67.4634H312.021V76.8618H310.78V76.4325C310.633 76.5872 310.47 76.7148 310.293 76.8154C310.122 76.9082 309.925 76.9546 309.701 76.9546ZM310.014 75.98C310.13 75.98 310.254 75.9607 310.385 75.922C310.517 75.8756 310.648 75.8098 310.78 75.7247V71.3272C310.672 71.2498 310.552 71.1841 310.42 71.1299C310.289 71.0681 310.146 71.0371 309.991 71.0371C309.705 71.0371 309.511 71.1764 309.411 71.4548C309.31 71.7256 309.26 72.0543 309.26 72.4411V74.3324C309.26 74.6418 309.275 74.9241 309.306 75.1794C309.345 75.4269 309.418 75.6242 309.527 75.7711C309.635 75.9104 309.797 75.98 310.014 75.98ZM313.36 76.8618V70.1553H314.602V76.8618H313.36ZM313.36 69.1574V67.8579H314.602V69.1574H313.36ZM317.137 76.9546C316.874 76.9546 316.642 76.8812 316.441 76.7342C316.24 76.5795 316.081 76.3861 315.965 76.154C315.849 75.9142 315.791 75.6628 315.791 75.3998C315.791 74.9821 315.861 74.6302 316 74.344C316.139 74.0578 316.329 73.818 316.569 73.6246C316.816 73.4235 317.098 73.2494 317.416 73.1025C317.74 72.9555 318.081 72.8124 318.437 72.6731V72.1974C318.437 71.9267 318.421 71.7024 318.39 71.5245C318.359 71.3465 318.294 71.215 318.193 71.1299C318.1 71.0371 317.957 70.9907 317.764 70.9907C317.593 70.9907 317.454 71.0294 317.346 71.1067C317.245 71.1841 317.172 71.2963 317.125 71.4432C317.079 71.5825 317.056 71.7488 317.056 71.9422V72.2786L315.826 72.2322C315.841 71.4896 316.012 70.9443 316.336 70.5962C316.661 70.2404 317.164 70.0625 317.845 70.0625C318.51 70.0625 318.982 70.2443 319.26 70.6078C319.539 70.9714 319.678 71.4974 319.678 72.1858V75.249C319.678 75.4579 319.682 75.659 319.69 75.8524C319.705 76.0457 319.721 76.2275 319.736 76.3977C319.759 76.5601 319.779 76.7148 319.794 76.8618H318.657C318.634 76.7381 318.603 76.5833 318.564 76.3977C318.533 76.2043 318.51 76.0303 318.495 75.8756C318.417 76.1386 318.266 76.3861 318.042 76.6182C317.826 76.8425 317.524 76.9546 317.137 76.9546ZM317.624 75.8872C317.748 75.8872 317.864 75.8524 317.973 75.7827C318.081 75.7131 318.178 75.6358 318.263 75.5507C318.348 75.4579 318.406 75.3844 318.437 75.3302V73.4273C318.243 73.5356 318.061 73.6439 317.891 73.7522C317.721 73.8605 317.57 73.9765 317.439 74.1003C317.315 74.2163 317.214 74.3517 317.137 74.5064C317.067 74.6534 317.033 74.8236 317.033 75.0169C317.033 75.2877 317.083 75.5004 317.184 75.6551C317.284 75.8098 317.431 75.8872 317.624 75.8872Z" fill="black"/>
<path d="M96.5545 90.7854V81.387H97.8424V90.7854H96.5545ZM101.579 90.8898C101.038 90.8898 100.585 90.7738 100.222 90.5417C99.8658 90.3097 99.595 89.9887 99.4094 89.5787C99.2237 89.1687 99.1154 88.693 99.0845 88.1515L100.245 87.8382C100.268 88.1709 100.318 88.4919 100.396 88.8013C100.481 89.1107 100.616 89.366 100.802 89.5671C100.987 89.7605 101.247 89.8572 101.579 89.8572C101.919 89.8572 102.175 89.7643 102.345 89.5787C102.523 89.3853 102.612 89.1107 102.612 88.7549C102.612 88.3294 102.515 87.9891 102.322 87.7338C102.128 87.4708 101.885 87.2078 101.591 86.9448L100.013 85.5525C99.7033 85.2817 99.4751 84.9878 99.3282 84.6706C99.1812 84.3458 99.1077 83.9474 99.1077 83.4755C99.1077 82.7871 99.305 82.2534 99.6995 81.8743C100.094 81.4953 100.632 81.3058 101.312 81.3058C101.684 81.3058 102.008 81.3561 102.287 81.4566C102.573 81.5494 102.809 81.6964 102.995 81.8975C103.188 82.0986 103.339 82.3539 103.447 82.6633C103.563 82.965 103.641 83.3208 103.679 83.7308L102.565 84.0325C102.542 83.7231 102.496 83.4407 102.426 83.1855C102.357 82.9225 102.233 82.7136 102.055 82.5589C101.885 82.3965 101.637 82.3152 101.312 82.3152C100.987 82.3152 100.732 82.4042 100.546 82.5821C100.369 82.7523 100.28 83.0075 100.28 83.3479C100.28 83.6341 100.326 83.87 100.419 84.0557C100.519 84.2413 100.678 84.4308 100.895 84.6242L102.484 86.0166C102.84 86.326 103.153 86.6973 103.424 87.1305C103.695 87.5559 103.83 88.0626 103.83 88.6505C103.83 89.1146 103.733 89.5168 103.54 89.8572C103.347 90.1898 103.08 90.445 102.739 90.623C102.407 90.8009 102.02 90.8898 101.579 90.8898ZM107.249 90.8898C106.615 90.8898 106.108 90.7661 105.729 90.5185C105.35 90.271 105.079 89.919 104.917 89.4627C104.754 88.9985 104.673 88.4571 104.673 87.8382V84.2761C104.673 83.6573 104.754 83.1274 104.917 82.6865C105.087 82.2379 105.358 81.8975 105.729 81.6655C106.108 81.4257 106.615 81.3058 107.249 81.3058C107.883 81.3058 108.386 81.4257 108.757 81.6655C109.129 81.9053 109.396 82.2456 109.558 82.6865C109.728 83.1274 109.813 83.6573 109.813 84.2761V87.8498C109.813 88.4609 109.728 88.9947 109.558 89.4511C109.396 89.9074 109.129 90.2633 108.757 90.5185C108.386 90.7661 107.883 90.8898 107.249 90.8898ZM107.249 89.8572C107.597 89.8572 107.86 89.7875 108.038 89.6483C108.216 89.5013 108.336 89.3002 108.398 89.045C108.46 88.782 108.491 88.4764 108.491 88.1283V84.0093C108.491 83.6612 108.46 83.3634 108.398 83.1158C108.336 82.8606 108.216 82.6672 108.038 82.5357C107.86 82.3965 107.597 82.3268 107.249 82.3268C106.901 82.3268 106.634 82.3965 106.448 82.5357C106.27 82.6672 106.151 82.8606 106.089 83.1158C106.027 83.3634 105.996 83.6612 105.996 84.0093V88.1283C105.996 88.4764 106.027 88.782 106.089 89.045C106.151 89.3002 106.27 89.5013 106.448 89.6483C106.634 89.7875 106.901 89.8572 107.249 89.8572ZM115.865 90.8898C115.378 90.8898 114.96 90.8009 114.612 90.623C114.272 90.4373 114.013 90.1704 113.835 89.8224C113.657 89.4743 113.564 89.0527 113.556 88.5576C113.556 88.5422 113.556 88.5267 113.556 88.5112C113.556 88.488 113.556 88.4687 113.556 88.4532H114.798C114.798 88.9019 114.871 89.2499 115.018 89.4975C115.165 89.7373 115.451 89.8572 115.877 89.8572C116.109 89.8572 116.302 89.7875 116.457 89.6483C116.612 89.5013 116.728 89.2809 116.805 88.9869C116.882 88.6853 116.921 88.3062 116.921 87.8498V86.4227C116.805 86.6161 116.631 86.7746 116.399 86.8984C116.175 87.0144 115.892 87.0724 115.552 87.0724C115.034 87.0724 114.627 86.9603 114.334 86.736C114.04 86.5039 113.831 86.1868 113.707 85.7845C113.591 85.3745 113.533 84.8988 113.533 84.3574C113.533 83.7849 113.61 83.2705 113.765 82.8142C113.92 82.35 114.167 81.9826 114.508 81.7119C114.856 81.4411 115.308 81.3058 115.865 81.3058C116.407 81.3058 116.847 81.445 117.188 81.7235C117.528 81.9942 117.776 82.3616 117.93 82.8258C118.093 83.2899 118.174 83.8081 118.174 84.3806V87.5366C118.174 88.1399 118.104 88.6969 117.965 89.2074C117.826 89.7179 117.59 90.1279 117.257 90.4373C116.925 90.739 116.461 90.8898 115.865 90.8898ZM115.865 86.1326C116.136 86.1326 116.356 86.0669 116.526 85.9354C116.697 85.7961 116.828 85.6453 116.921 85.4828V84.0905C116.921 83.7656 116.89 83.4717 116.828 83.2087C116.766 82.9379 116.658 82.7252 116.503 82.5705C116.349 82.4081 116.136 82.3268 115.865 82.3268C115.594 82.3268 115.378 82.4081 115.215 82.5705C115.061 82.7329 114.948 82.9457 114.879 83.2087C114.817 83.4639 114.786 83.7463 114.786 84.0557C114.786 84.427 114.802 84.7712 114.832 85.0883C114.871 85.4055 114.964 85.6608 115.111 85.8541C115.266 86.0398 115.517 86.1326 115.865 86.1326ZM121.852 90.8898C121.318 90.8898 120.877 90.7699 120.529 90.5301C120.189 90.2903 119.933 89.9616 119.763 89.5439C119.601 89.1262 119.52 88.6505 119.52 88.1167V84.0673C119.52 83.5181 119.601 83.0385 119.763 82.6285C119.926 82.2108 120.177 81.8859 120.517 81.6539C120.865 81.4218 121.31 81.3058 121.852 81.3058C122.393 81.3058 122.834 81.4218 123.174 81.6539C123.515 81.8859 123.766 82.2108 123.929 82.6285C124.091 83.0385 124.172 83.5181 124.172 84.0673V88.1167C124.172 88.6582 124.087 89.1378 123.917 89.5555C123.755 89.9732 123.503 90.3019 123.163 90.5417C122.822 90.7738 122.385 90.8898 121.852 90.8898ZM121.852 89.8688C122.146 89.8688 122.366 89.7837 122.513 89.6135C122.668 89.4433 122.772 89.2267 122.826 88.9637C122.888 88.693 122.919 88.4145 122.919 88.1283V84.0557C122.919 83.754 122.892 83.4717 122.838 83.2087C122.784 82.9379 122.679 82.7213 122.525 82.5589C122.378 82.3965 122.153 82.3152 121.852 82.3152C121.55 82.3152 121.322 82.3965 121.167 82.5589C121.012 82.7213 120.908 82.9379 120.854 83.2087C120.8 83.4717 120.773 83.754 120.773 84.0557V88.1283C120.773 88.4145 120.8 88.693 120.854 88.9637C120.916 89.2267 121.024 89.4433 121.179 89.6135C121.341 89.7837 121.565 89.8688 121.852 89.8688ZM127.846 90.8898C127.312 90.8898 126.871 90.7699 126.523 90.5301C126.183 90.2903 125.927 89.9616 125.757 89.5439C125.595 89.1262 125.514 88.6505 125.514 88.1167V84.0673C125.514 83.5181 125.595 83.0385 125.757 82.6285C125.92 82.2108 126.171 81.8859 126.511 81.6539C126.86 81.4218 127.304 81.3058 127.846 81.3058C128.387 81.3058 128.828 81.4218 129.169 81.6539C129.509 81.8859 129.76 82.2108 129.923 82.6285C130.085 83.0385 130.166 83.5181 130.166 84.0673V88.1167C130.166 88.6582 130.081 89.1378 129.911 89.5555C129.749 89.9732 129.497 90.3019 129.157 90.5417C128.817 90.7738 128.38 90.8898 127.846 90.8898ZM127.846 89.8688C128.14 89.8688 128.36 89.7837 128.507 89.6135C128.662 89.4433 128.766 89.2267 128.82 88.9637C128.882 88.693 128.913 88.4145 128.913 88.1283V84.0557C128.913 83.754 128.886 83.4717 128.832 83.2087C128.778 82.9379 128.673 82.7213 128.519 82.5589C128.372 82.3965 128.147 82.3152 127.846 82.3152C127.544 82.3152 127.316 82.3965 127.161 82.5589C127.007 82.7213 126.902 82.9379 126.848 83.2087C126.794 83.4717 126.767 83.754 126.767 84.0557V88.1283C126.767 88.4145 126.794 88.693 126.848 88.9637C126.91 89.2267 127.018 89.4433 127.173 89.6135C127.335 89.7837 127.56 89.8688 127.846 89.8688ZM132.819 90.7854V83.0114C132.811 83.0191 132.722 83.0424 132.552 83.081C132.39 83.1197 132.204 83.1584 131.995 83.1971C131.786 83.2357 131.601 83.2705 131.438 83.3015C131.276 83.3324 131.191 83.3479 131.183 83.3479V82.4081C131.314 82.3771 131.465 82.3346 131.635 82.2804C131.813 82.2263 131.991 82.1605 132.169 82.0832C132.355 82.0058 132.529 81.9091 132.691 81.7931C132.861 81.6771 133.005 81.5417 133.121 81.387H134.06V90.7854H132.819ZM138.783 85.9702V84.6474H140.036V85.9702H138.783ZM138.783 89.6715V88.3488H140.036V89.6715H138.783ZM143.503 90.7854V89.9036L145.893 86.179C146.071 85.9006 146.233 85.6414 146.38 85.4016C146.535 85.1618 146.659 84.9104 146.751 84.6474C146.852 84.3767 146.902 84.0673 146.902 83.7192C146.902 83.286 146.833 82.9457 146.693 82.6981C146.554 82.4506 146.311 82.3268 145.962 82.3268C145.669 82.3268 145.44 82.4081 145.278 82.5705C145.115 82.7329 145.003 82.9457 144.941 83.2087C144.88 83.4717 144.849 83.754 144.849 84.0557V84.369H143.607V84.0441C143.607 83.4794 143.681 82.9959 143.828 82.5937C143.982 82.1837 144.226 81.8666 144.559 81.6423C144.899 81.4179 145.348 81.3058 145.904 81.3058C146.663 81.3058 147.227 81.5224 147.599 81.9555C147.97 82.381 148.155 82.9727 148.155 83.7308C148.155 84.133 148.105 84.485 148.005 84.7867C147.912 85.0883 147.788 85.3707 147.633 85.6337C147.479 85.8967 147.308 86.1674 147.123 86.4459L144.965 89.7411H147.935V90.7854H143.503ZM151.573 90.8898C151.039 90.8898 150.598 90.7699 150.25 90.5301C149.91 90.2903 149.655 89.9616 149.484 89.5439C149.322 89.1262 149.241 88.6505 149.241 88.1167V84.0673C149.241 83.5181 149.322 83.0385 149.484 82.6285C149.647 82.2108 149.898 81.8859 150.239 81.6539C150.587 81.4218 151.032 81.3058 151.573 81.3058C152.114 81.3058 152.555 81.4218 152.896 81.6539C153.236 81.8859 153.487 82.2108 153.65 82.6285C153.812 83.0385 153.894 83.5181 153.894 84.0673V88.1167C153.894 88.6582 153.808 89.1378 153.638 89.5555C153.476 89.9732 153.224 90.3019 152.884 90.5417C152.544 90.7738 152.107 90.8898 151.573 90.8898ZM151.573 89.8688C151.867 89.8688 152.087 89.7837 152.234 89.6135C152.389 89.4433 152.493 89.2267 152.548 88.9637C152.61 88.693 152.64 88.4145 152.64 88.1283V84.0557C152.64 83.754 152.613 83.4717 152.559 83.2087C152.505 82.9379 152.401 82.7213 152.246 82.5589C152.099 82.3965 151.875 82.3152 151.573 82.3152C151.271 82.3152 151.043 82.3965 150.888 82.5589C150.734 82.7213 150.629 82.9379 150.575 83.2087C150.521 83.4717 150.494 83.754 150.494 84.0557V88.1283C150.494 88.4145 150.521 88.693 150.575 88.9637C150.637 89.2267 150.745 89.4433 150.9 89.6135C151.062 89.7837 151.287 89.8688 151.573 89.8688ZM156.546 90.7854V83.0114C156.538 83.0191 156.449 83.0424 156.279 83.081C156.117 83.1197 155.931 83.1584 155.722 83.1971C155.513 83.2357 155.328 83.2705 155.165 83.3015C155.003 83.3324 154.918 83.3479 154.91 83.3479V82.4081C155.042 82.3771 155.192 82.3346 155.363 82.2804C155.54 82.2263 155.718 82.1605 155.896 82.0832C156.082 82.0058 156.256 81.9091 156.418 81.7931C156.589 81.6771 156.732 81.5417 156.848 81.387H157.788V90.7854H156.546ZM161.982 90.8782C161.417 90.8782 160.969 90.7699 160.636 90.5533C160.303 90.3368 160.063 90.0235 159.917 89.6135C159.777 89.2035 159.708 88.7162 159.708 88.1515H160.949C160.949 88.43 160.972 88.7046 161.019 88.9753C161.065 89.2383 161.162 89.4588 161.309 89.6367C161.464 89.8069 161.696 89.892 162.005 89.892C162.345 89.892 162.589 89.7953 162.736 89.6019C162.883 89.4008 162.976 89.1339 163.015 88.8013C163.053 88.4609 163.073 88.078 163.073 87.6526C163.073 87.2272 163.049 86.8675 163.003 86.5735C162.956 86.2718 162.86 86.0437 162.713 85.8889C162.566 85.7265 162.334 85.6453 162.017 85.6453C161.761 85.6453 161.545 85.7265 161.367 85.8889C161.189 86.0437 161.057 86.2216 160.972 86.4227H159.917V81.387H163.966V82.6285H161.042L160.961 85.2276C161.115 85.0651 161.305 84.9375 161.529 84.8447C161.761 84.7519 162.024 84.7054 162.318 84.7054C162.829 84.7054 163.227 84.8253 163.513 85.0651C163.807 85.3049 164.012 85.6337 164.128 86.0514C164.252 86.4691 164.314 86.9487 164.314 87.4902C164.314 87.9697 164.279 88.4184 164.21 88.8361C164.14 89.2461 164.016 89.6058 163.838 89.9152C163.668 90.2169 163.432 90.4528 163.131 90.623C162.829 90.7931 162.446 90.8782 161.982 90.8782ZM170.418 90.8898C169.753 90.8898 169.235 90.7506 168.864 90.4721C168.5 90.1936 168.245 89.8185 168.098 89.3466C167.959 88.8748 167.889 88.3488 167.889 87.7686V84.4502C167.889 83.8159 167.959 83.2628 168.098 82.791C168.245 82.3191 168.5 81.9555 168.864 81.7003C169.235 81.4373 169.753 81.3058 170.418 81.3058C171.006 81.3058 171.47 81.4141 171.811 81.6307C172.159 81.8472 172.406 82.1567 172.553 82.5589C172.708 82.9611 172.785 83.4446 172.785 84.0093V84.7519H171.544V84.0905C171.544 83.7424 171.525 83.4369 171.486 83.1739C171.455 82.9031 171.362 82.6943 171.207 82.5473C171.053 82.4003 170.794 82.3268 170.43 82.3268C170.059 82.3268 169.788 82.4081 169.618 82.5705C169.448 82.7252 169.335 82.9495 169.281 83.2435C169.235 83.5297 169.212 83.8662 169.212 84.2529V87.9775C169.212 88.4493 169.25 88.8245 169.328 89.103C169.405 89.3737 169.533 89.5671 169.711 89.6831C169.889 89.7991 170.128 89.8572 170.43 89.8572C170.786 89.8572 171.041 89.7798 171.196 89.6251C171.35 89.4627 171.447 89.2422 171.486 88.9637C171.525 88.6853 171.544 88.3604 171.544 87.9891V87.2929H172.785V87.9891C172.785 88.5615 172.716 89.0682 172.577 89.5091C172.437 89.9423 172.197 90.2826 171.857 90.5301C171.517 90.7699 171.037 90.8898 170.418 90.8898ZM175.786 90.8782C175.26 90.8782 174.854 90.7777 174.568 90.5765C174.282 90.3677 174.081 90.066 173.965 89.6715C173.857 89.2693 173.802 88.7781 173.802 88.1979V86.6663C173.802 86.0707 173.86 85.5757 173.976 85.1812C174.092 84.7867 174.294 84.4889 174.58 84.2877C174.874 84.0866 175.276 83.9861 175.786 83.9861C176.351 83.9861 176.765 84.1021 177.028 84.3341C177.299 84.5662 177.477 84.9027 177.562 85.3436C177.647 85.7768 177.689 86.2989 177.689 86.91V87.4553H175.044V88.8013C175.044 89.072 175.067 89.2925 175.113 89.4627C175.168 89.6328 175.249 89.7605 175.357 89.8456C175.473 89.9229 175.62 89.9616 175.798 89.9616C175.984 89.9616 176.123 89.919 176.216 89.834C176.316 89.7411 176.382 89.6135 176.413 89.4511C176.452 89.2809 176.471 89.0836 176.471 88.8593V88.4532H177.678V88.7085C177.678 89.3814 177.535 89.9113 177.248 90.2981C176.962 90.6848 176.475 90.8782 175.786 90.8782ZM175.044 86.7824H176.471V86.179C176.471 85.9006 176.456 85.6685 176.425 85.4828C176.394 85.2895 176.328 85.1464 176.227 85.0535C176.135 84.953 175.984 84.9027 175.775 84.9027C175.574 84.9027 175.419 84.9491 175.311 85.0419C175.21 85.1348 175.141 85.2933 175.102 85.5177C175.063 85.7342 175.044 86.0359 175.044 86.4227V86.7824ZM178.848 90.7854V84.0789H180.09V85.0303C180.338 84.6204 180.585 84.3458 180.833 84.2065C181.08 84.0673 181.328 83.9977 181.575 83.9977C181.606 83.9977 181.633 83.9977 181.656 83.9977C181.687 83.9977 181.726 84.0015 181.772 84.0093V85.3784C181.68 85.3397 181.571 85.3088 181.448 85.2856C181.332 85.2547 181.212 85.2392 181.088 85.2392C180.894 85.2392 180.717 85.2856 180.554 85.3784C180.399 85.4635 180.245 85.6337 180.09 85.8889V90.7854H178.848ZM184.328 90.8782C183.98 90.8782 183.698 90.8125 183.481 90.681C183.273 90.5495 183.118 90.3638 183.017 90.124C182.924 89.8842 182.878 89.6019 182.878 89.277V84.9027H182.17V84.0789H182.878V82.118H184.12V84.0789H185.199V84.9027H184.12V89.1958C184.12 89.4588 184.162 89.6483 184.247 89.7643C184.332 89.8726 184.495 89.9268 184.735 89.9268C184.796 89.9268 184.866 89.9229 184.943 89.9152C185.028 89.9074 185.11 89.8997 185.187 89.892V90.8086C185.032 90.8318 184.889 90.8473 184.758 90.855C184.626 90.8705 184.483 90.8782 184.328 90.8782ZM186.192 90.7854V84.0789H187.434V90.7854H186.192ZM186.192 83.081V81.7815H187.434V83.081H186.192ZM189.157 90.7854V84.9955H188.356V84.0789H189.157V83.7308C189.157 83.2821 189.203 82.9109 189.296 82.6169C189.397 82.323 189.563 82.1025 189.795 81.9555C190.027 81.8086 190.344 81.7351 190.746 81.7351C190.847 81.7351 190.951 81.739 191.06 81.7467C191.176 81.7544 191.296 81.766 191.419 81.7815V82.7097C191.342 82.6943 191.265 82.6827 191.187 82.6749C191.118 82.6672 191.052 82.6633 190.99 82.6633C190.75 82.6633 190.592 82.7291 190.514 82.8606C190.437 82.9921 190.398 83.2125 190.398 83.5219V84.0789H193.137V90.7854H191.895V84.9955H190.398V90.7854H189.157ZM192.011 83.081V81.7815H193.148V83.081H192.011ZM196.318 90.8782C195.792 90.8782 195.386 90.7777 195.1 90.5765C194.814 90.3677 194.613 90.066 194.497 89.6715C194.388 89.2693 194.334 88.7781 194.334 88.1979V86.6663C194.334 86.0707 194.392 85.5757 194.508 85.1812C194.624 84.7867 194.825 84.4889 195.112 84.2877C195.406 84.0866 195.808 83.9861 196.318 83.9861C196.883 83.9861 197.297 84.1021 197.56 84.3341C197.831 84.5662 198.008 84.9027 198.094 85.3436C198.179 85.7768 198.221 86.2989 198.221 86.91V87.4553H195.576V88.8013C195.576 89.072 195.599 89.2925 195.645 89.4627C195.699 89.6328 195.781 89.7605 195.889 89.8456C196.005 89.9229 196.152 89.9616 196.33 89.9616C196.516 89.9616 196.655 89.919 196.748 89.834C196.848 89.7411 196.914 89.6135 196.945 89.4511C196.984 89.2809 197.003 89.0836 197.003 88.8593V88.4532H198.21V88.7085C198.21 89.3814 198.066 89.9113 197.78 90.2981C197.494 90.6848 197.007 90.8782 196.318 90.8782ZM195.576 86.7824H197.003V86.179C197.003 85.9006 196.987 85.6685 196.956 85.4828C196.926 85.2895 196.86 85.1464 196.759 85.0535C196.666 84.953 196.516 84.9027 196.307 84.9027C196.106 84.9027 195.951 84.9491 195.843 85.0419C195.742 85.1348 195.672 85.2933 195.634 85.5177C195.595 85.7342 195.576 86.0359 195.576 86.4227V86.7824ZM200.9 90.8782C200.336 90.8782 199.914 90.6732 199.636 90.2633C199.357 89.8456 199.218 89.1416 199.218 88.1515V86.852C199.218 86.3415 199.26 85.8696 199.345 85.4364C199.431 84.9955 199.589 84.6436 199.821 84.3806C200.061 84.1176 200.409 83.9861 200.865 83.9861C201.09 83.9861 201.295 84.0363 201.48 84.1369C201.666 84.2375 201.832 84.3612 201.979 84.5082V81.387H203.221V90.7854H201.979V90.3561C201.832 90.5108 201.67 90.6384 201.492 90.739C201.322 90.8318 201.125 90.8782 200.9 90.8782ZM201.214 89.9036C201.33 89.9036 201.453 89.8842 201.585 89.8456C201.716 89.7991 201.848 89.7334 201.979 89.6483V85.2508C201.871 85.1734 201.751 85.1077 201.62 85.0535C201.488 84.9917 201.345 84.9607 201.19 84.9607C200.904 84.9607 200.711 85.0999 200.61 85.3784C200.51 85.6492 200.459 85.9779 200.459 86.3647V88.256C200.459 88.5654 200.475 88.8477 200.506 89.103C200.544 89.3505 200.618 89.5478 200.726 89.6947C200.835 89.834 200.997 89.9036 201.214 89.9036Z" fill="black"/>
</svg>
