<svg width="64" height="69" viewBox="0 0 64 69" fill="none" xmlns="http://www.w3.org/2000/svg">
<path d="M32 34.437L37.5455 39.9825L54.2379 23.2901L37.5455 6.5978L32 12.1433L31.4739 11.6172L37.5455 5.54552L55.2901 23.2901L37.5455 41.0348L31.4739 34.9631L32 34.437Z" fill="white"/>
<path d="M43.1468 23.2902L32 12.1433L20.8532 23.2902L32 34.437L43.1468 23.2902Z" fill="white"/>
<path d="M31.4739 34.9631L19.8009 23.2902L31.4739 11.6172L25.9283 6.07169L8.70983 23.2902L25.9283 40.5087L31.4739 34.9631Z" fill="white"/>
<path d="M6.07586 46.9363C5.55544 46.9363 5.07406 47.0296 4.6317 47.2161C4.19369 47.3982 3.81422 47.6628 3.49329 48.0097C3.17671 48.3523 2.92951 48.7686 2.7517 49.2587C2.57389 49.7444 2.48499 50.2887 2.48499 50.8915C2.48499 51.4987 2.5804 52.0473 2.77122 52.5373C2.96637 53.023 3.23092 53.4372 3.56485 53.7798C3.90312 54.1224 4.29994 54.387 4.7553 54.5735C5.21067 54.7556 5.69856 54.8467 6.21897 54.8467C6.59627 54.8467 6.93671 54.7968 7.24029 54.6971C7.54386 54.593 7.81708 54.4455 8.05994 54.2547V51.2298H6.42714V50.7159H9.5106V54.5084C9.25907 54.6428 9.00537 54.7621 8.74949 54.8662C8.49362 54.9703 8.21607 55.057 7.91683 55.1264C7.62193 55.1958 7.29667 55.2478 6.94105 55.2825C6.58543 55.3215 6.18211 55.3411 5.73108 55.3411C5.25403 55.3411 4.80084 55.2869 4.37149 55.1784C3.94215 55.0744 3.54317 54.9247 3.17454 54.7296C2.81025 54.5344 2.48065 54.3024 2.18575 54.0335C1.89084 53.7603 1.63931 53.4589 1.43114 53.1293C1.22731 52.7997 1.06902 52.4463 0.956264 52.0689C0.843508 51.6916 0.787129 51.2992 0.787129 50.8915C0.787129 50.4882 0.839171 50.0957 0.943254 49.7141C1.05167 49.3281 1.20563 48.966 1.40512 48.6277C1.60462 48.2851 1.84748 47.9728 2.13371 47.691C2.41993 47.4091 2.74303 47.1662 3.10298 46.9624C3.46293 46.7585 3.85542 46.6002 4.28042 46.4875C4.70543 46.3747 5.15646 46.3184 5.6335 46.3184C6.08887 46.3184 6.50954 46.3812 6.89551 46.507C7.28582 46.6284 7.63927 46.7911 7.95586 46.9949C8.27678 47.1987 8.56084 47.4351 8.80804 47.704C9.05524 47.9685 9.26774 48.2461 9.44555 48.5366L8.82105 48.953C8.45676 48.2547 8.05127 47.7452 7.60458 47.4242C7.16223 47.099 6.65265 46.9363 6.07586 46.9363ZM16.9637 46.3184L21.023 55.1394H19.5463L18.2323 52.2641H14.5308L13.1712 55.1394H12.4426L16.5994 46.3184H16.9637ZM14.7845 51.7047H17.9655L16.3978 48.2894L14.7845 51.7047ZM23.9615 46.5135H25.4122V52.1145C25.4122 52.4831 25.4751 52.8301 25.6008 53.1553C25.7266 53.4762 25.9066 53.7581 26.1408 54.001C26.3749 54.2439 26.6568 54.4368 26.9864 54.58C27.3204 54.7187 27.6912 54.7881 28.0988 54.7881C28.5108 54.7881 28.8816 54.7187 29.2112 54.58C29.5408 54.4368 29.8205 54.2439 30.0504 54.001C30.2846 53.7581 30.4624 53.4762 30.5838 53.1553C30.7096 52.8301 30.7725 52.4831 30.7725 52.1145V46.5135H31.41V52.1145C31.41 52.5568 31.3384 52.9732 31.1953 53.3635C31.0522 53.7538 30.8267 54.0964 30.5188 54.3913C30.2152 54.6819 29.8249 54.9139 29.3478 55.0874C28.8708 55.2565 28.2983 55.3411 27.6304 55.3411C27.0363 55.3411 26.5094 55.2565 26.0497 55.0874C25.5943 54.9139 25.2105 54.6797 24.8983 54.3848C24.5903 54.0899 24.3562 53.7451 24.1957 53.3505C24.0396 52.9515 23.9615 52.5265 23.9615 52.0755V46.5135ZM35.4804 46.5135H38.4728C38.9889 46.5135 39.4421 46.5699 39.8324 46.6826C40.2227 46.7911 40.548 46.945 40.8082 47.1445C41.0684 47.344 41.2635 47.5825 41.3936 47.8601C41.5281 48.1333 41.5953 48.4325 41.5953 48.7578C41.5953 49.0267 41.5432 49.2782 41.4392 49.5124C41.3394 49.7466 41.1963 49.9591 41.0098 50.1499C40.8277 50.3364 40.6065 50.499 40.3463 50.6378C40.0861 50.7722 39.7999 50.8785 39.4876 50.9566L42.6296 55.1394H40.9448L37.9459 51.0867H36.9311V55.1394H35.4804V46.5135ZM36.9311 50.6508H37.7702C38.0955 50.6508 38.3947 50.6074 38.668 50.5207C38.9455 50.434 39.184 50.3125 39.3835 50.1564C39.5874 49.996 39.7456 49.803 39.8584 49.5775C39.9712 49.3519 40.0275 49.0982 40.0275 48.8163C40.0275 48.5561 39.982 48.3176 39.8909 48.1008C39.8042 47.8839 39.6784 47.6996 39.5136 47.5478C39.3532 47.3917 39.1602 47.2703 38.9347 47.1835C38.7135 47.0968 38.4706 47.0534 38.2061 47.0534H36.9311V50.6508ZM49.0484 46.3184L53.1077 55.1394H51.631L50.3169 52.2641H46.6155L45.2559 55.1394H44.5273L48.6841 46.3184H49.0484ZM46.8692 51.7047H50.0502L48.4825 48.2894L46.8692 51.7047ZM56.5601 46.5135L59.8192 53.3765L62.8441 46.5135H63.5337L59.6176 55.3411H59.2403L55.0314 46.5135H56.5601Z" fill="white"/>
<path d="M13.3299 65.3882C13.4539 65.3882 13.5766 65.3718 13.698 65.3389C13.8195 65.3035 13.9282 65.2529 14.0244 65.1871C14.1205 65.1188 14.1977 65.0366 14.2559 64.9405C14.314 64.8418 14.3431 64.728 14.3431 64.5989C14.3431 64.4446 14.3027 64.308 14.2217 64.1891C14.1433 64.0677 14.0396 63.9576 13.9105 63.859C13.7815 63.7578 13.6335 63.6629 13.4666 63.5744C13.3021 63.4858 13.1339 63.3973 12.9619 63.3087C12.7898 63.2202 12.6203 63.1279 12.4534 63.0317C12.2889 62.9331 12.1422 62.8243 12.0132 62.7054C11.8842 62.584 11.7792 62.4499 11.6982 62.3031C11.6198 62.1539 11.5806 61.9831 11.5806 61.7909C11.5806 61.5986 11.616 61.4202 11.6868 61.2558C11.7602 61.0914 11.8665 60.9497 12.0056 60.8308C12.1447 60.7094 12.3155 60.6145 12.5179 60.5462C12.7228 60.4779 12.9568 60.4437 13.2199 60.4437C13.4577 60.4437 13.6702 60.469 13.8574 60.5196C14.0446 60.5702 14.2091 60.6449 14.3507 60.7435C14.4924 60.8422 14.6126 60.9636 14.7112 61.1078C14.8099 61.252 14.8896 61.419 14.9503 61.6087L14.5177 61.806C14.4671 61.6517 14.4026 61.5113 14.3242 61.3848C14.2457 61.2558 14.1521 61.1458 14.0433 61.0547C13.9346 60.9636 13.8081 60.894 13.6639 60.846C13.5222 60.7954 13.3616 60.7701 13.182 60.7701C13.0226 60.7701 12.8834 60.7929 12.7645 60.8384C12.6456 60.8814 12.5457 60.9396 12.4648 61.0129C12.3863 61.0838 12.3269 61.1647 12.2864 61.2558C12.2485 61.3444 12.2295 61.4354 12.2295 61.529C12.2295 61.6606 12.27 61.782 12.3509 61.8933C12.4319 62.0021 12.5394 62.1058 12.6735 62.2045C12.8075 62.3006 12.9593 62.3942 13.1288 62.4853C13.3009 62.5764 13.4754 62.6687 13.6525 62.7623C13.8296 62.8559 14.0029 62.9533 14.1724 63.0545C14.3444 63.1557 14.4974 63.267 14.6315 63.3884C14.7656 63.5073 14.8731 63.6389 14.9541 63.7831C15.035 63.9247 15.0755 64.0841 15.0755 64.2612C15.0755 64.4611 15.0376 64.6495 14.9617 64.8266C14.8858 65.0012 14.7719 65.1542 14.6201 65.2858C14.4684 65.4148 14.2799 65.5173 14.0547 65.5932C13.8296 65.669 13.5677 65.707 13.2692 65.707C13.0264 65.707 12.8101 65.6804 12.6203 65.6273C12.4306 65.5742 12.2624 65.497 12.1156 65.3958C11.9714 65.2946 11.8475 65.1719 11.7438 65.0277C11.64 64.881 11.5553 64.714 11.4895 64.5268L11.9411 64.3409C11.9942 64.5053 12.065 64.6521 12.1536 64.7811C12.2447 64.9101 12.3496 65.0202 12.4685 65.1112C12.5874 65.1998 12.719 65.2681 12.8632 65.3161C13.0099 65.3642 13.1655 65.3882 13.3299 65.3882ZM17.0677 60.383H17.2878V61.7036H18.153V62.0337H17.2878V64.7697C17.2878 64.8279 17.2979 64.8823 17.3182 64.9329C17.3409 64.9835 17.37 65.0277 17.4055 65.0657C17.4434 65.1036 17.4877 65.134 17.5383 65.1568C17.5889 65.177 17.6445 65.1871 17.7052 65.1871C17.7912 65.1871 17.8697 65.1656 17.9405 65.1226C18.0113 65.0796 18.0733 65.0265 18.1264 64.9632L18.32 65.0922C18.2137 65.2719 18.0759 65.4135 17.9064 65.5173C17.7369 65.621 17.5269 65.6728 17.2764 65.6728C17.1474 65.6728 17.0348 65.6501 16.9387 65.6045C16.8426 65.5615 16.7629 65.5008 16.6996 65.4224C16.6389 65.3414 16.5934 65.2466 16.563 65.1378C16.5327 65.0265 16.5175 64.9038 16.5175 64.7697V62.0337H15.842V61.8895L16.5175 61.7036V60.5993L17.0677 60.383ZM21.1318 65.6728C20.8333 65.6728 20.5588 65.621 20.3084 65.5173C20.0579 65.4135 19.8417 65.2731 19.6595 65.096C19.4774 64.9164 19.3344 64.7077 19.2307 64.4699C19.1295 64.2296 19.0789 63.9728 19.0789 63.6996C19.0789 63.4137 19.1295 63.1456 19.2307 62.8951C19.3344 62.6421 19.4774 62.422 19.6595 62.2348C19.8417 62.0476 20.0579 61.9009 20.3084 61.7947C20.5588 61.6859 20.8333 61.6315 21.1318 61.6315C21.4278 61.6315 21.6998 61.6808 21.9477 61.7795C22.1982 61.8781 22.4145 62.0135 22.5966 62.1855C22.7787 62.3575 22.9204 62.5599 23.0216 62.7927C23.1253 63.0229 23.1772 63.2708 23.1772 63.5364C23.1772 63.8299 23.1253 64.1069 23.0216 64.3675C22.9204 64.6255 22.7787 64.8519 22.5966 65.0467C22.4145 65.239 22.1982 65.392 21.9477 65.5059C21.6998 65.6172 21.4278 65.6728 21.1318 65.6728ZM21.2798 65.3882C21.4316 65.3882 21.5708 65.349 21.6973 65.2706C21.8237 65.1922 21.9325 65.0872 22.0236 64.9556C22.1147 64.8216 22.1855 64.6672 22.2361 64.4927C22.2867 64.3181 22.312 64.1335 22.312 63.9387C22.312 63.6579 22.288 63.3948 22.2399 63.1494C22.1918 62.904 22.1134 62.6902 22.0046 62.5081C21.8958 62.3259 21.7542 62.183 21.5796 62.0793C21.4051 61.973 21.1926 61.9199 20.9421 61.9199C20.8131 61.9199 20.6879 61.9578 20.5664 62.0337C20.445 62.1071 20.3375 62.2083 20.2439 62.3373C20.1528 62.4663 20.0795 62.6181 20.0238 62.7927C19.9681 62.9647 19.9403 63.1481 19.9403 63.3429C19.9403 63.6262 19.9694 63.8919 20.0276 64.1398C20.0883 64.3877 20.1756 64.604 20.2894 64.7887C20.4058 64.9733 20.5462 65.1201 20.7106 65.2289C20.8776 65.3351 21.0673 65.3882 21.2798 65.3882ZM24.8279 61.6315H25.048V62.417C25.2833 62.1539 25.5274 61.9578 25.7804 61.8288C26.0333 61.6973 26.2901 61.6315 26.5507 61.6315C26.6873 61.6315 26.8138 61.6618 26.9302 61.7226C27.0491 61.7833 27.1528 61.8668 27.2413 61.973C27.3299 62.0793 27.3994 62.2045 27.45 62.3487C27.5006 62.4904 27.5259 62.6421 27.5259 62.804V65.5894H26.7556V62.9369C26.7556 62.8078 26.7404 62.6953 26.7101 62.5991C26.6797 62.5005 26.6367 62.4183 26.581 62.3525C26.5254 62.2867 26.4596 62.2374 26.3837 62.2045C26.3103 62.1691 26.2281 62.1514 26.1371 62.1514C26.0561 62.1514 25.9701 62.1653 25.879 62.1931C25.7879 62.2209 25.6943 62.2601 25.5982 62.3107C25.5046 62.3588 25.411 62.417 25.3174 62.4853C25.2238 62.5536 25.134 62.6295 25.048 62.713V65.5894H24.2739V61.8478L24.8279 61.6315ZM30.5389 65.6728C30.2758 65.6728 30.0279 65.6235 29.7951 65.5248C29.5649 65.4262 29.3638 65.2921 29.1918 65.1226C29.0198 64.9531 28.8832 64.7545 28.782 64.5268C28.6833 64.2966 28.634 64.0525 28.634 63.7945C28.634 63.4833 28.6795 63.1962 28.7706 62.9331C28.8617 62.6674 28.9907 62.4385 29.1576 62.2462C29.3246 62.054 29.5245 61.9034 29.7572 61.7947C29.9925 61.6859 30.2543 61.6315 30.5427 61.6315C30.7957 61.6315 31.0284 61.677 31.2409 61.7681C31.4534 61.8566 31.6356 61.9768 31.7874 62.1286C31.9417 62.2778 32.0606 62.4511 32.1441 62.6485C32.2301 62.8458 32.2731 63.052 32.2731 63.267H29.3777C29.3777 63.5276 29.4106 63.7692 29.4764 63.9918C29.5447 64.2144 29.6396 64.4067 29.761 64.5686C29.8824 64.7305 30.0266 64.857 30.1936 64.9481C30.3606 65.0391 30.544 65.0847 30.7438 65.0847C30.9108 65.0847 31.0714 65.0581 31.2258 65.005C31.3801 64.9493 31.5192 64.8772 31.6432 64.7887C31.7697 64.7001 31.8772 64.5989 31.9657 64.4851C32.0543 64.3713 32.1162 64.2536 32.1517 64.1322L32.3755 64.2309C32.3199 64.4307 32.2301 64.6179 32.1061 64.7925C31.9822 64.967 31.8367 65.1201 31.6697 65.2516C31.5053 65.3806 31.3257 65.4831 31.1309 65.559C30.9361 65.6349 30.7388 65.6728 30.5389 65.6728ZM31.3054 62.9558C31.3054 62.8091 31.2789 62.6725 31.2258 62.546C31.1752 62.4195 31.1043 62.3107 31.0132 62.2197C30.9222 62.1261 30.8159 62.0527 30.6945 61.9996C30.5731 61.9464 30.4428 61.9199 30.3036 61.9199C30.1873 61.9199 30.076 61.9464 29.9697 61.9996C29.8635 62.0502 29.7686 62.1223 29.6851 62.2159C29.6016 62.3069 29.532 62.4157 29.4764 62.5422C29.4233 62.6687 29.3916 62.8053 29.3815 62.952L31.3054 62.9558ZM38.5647 60.5576V60.8839H35.9122V62.6826H37.6881V63.009H35.9122V65.263H38.5647V65.5894H35.066V60.5576H38.5647ZM38.9138 61.7036H39.8245L42.5112 65.5894H41.6043L38.9138 61.7036ZM39.335 65.5894H38.9138L42.0862 61.7036H42.5112L39.335 65.5894ZM43.3005 61.8516L43.8431 61.6315H44.067V65.5894H43.3005V61.8516ZM43.2398 60.2161C43.2398 60.1553 43.2512 60.0984 43.2739 60.0453C43.2967 59.9922 43.3283 59.9454 43.3688 59.9049C43.4093 59.8644 43.4561 59.8328 43.5092 59.81C43.5623 59.7873 43.6192 59.7759 43.68 59.7759C43.7407 59.7759 43.7976 59.7873 43.8507 59.81C43.9038 59.8328 43.9506 59.8644 43.9911 59.9049C44.0316 59.9454 44.0632 59.9922 44.086 60.0453C44.1088 60.0984 44.1201 60.1553 44.1201 60.2161C44.1201 60.2768 44.1088 60.3337 44.086 60.3868C44.0632 60.4399 44.0316 60.4867 43.9911 60.5272C43.9506 60.5677 43.9038 60.5993 43.8507 60.6221C43.7976 60.6449 43.7407 60.6562 43.68 60.6562C43.6192 60.6562 43.5623 60.6449 43.5092 60.6221C43.4561 60.5993 43.4093 60.5677 43.3688 60.5272C43.3283 60.4867 43.2967 60.4399 43.2739 60.3868C43.2512 60.3337 43.2398 60.2768 43.2398 60.2161ZM46.0403 61.6315H46.2603V62.436C46.359 62.3297 46.4703 62.2285 46.5943 62.1324C46.7182 62.0337 46.846 61.9477 46.9775 61.8743C47.1091 61.7985 47.2406 61.739 47.3722 61.696C47.5037 61.653 47.629 61.6315 47.7479 61.6315C47.8617 61.6315 47.9768 61.6517 48.0932 61.6922C48.2121 61.7327 48.3209 61.7896 48.4195 61.863C48.5207 61.9363 48.6067 62.0236 48.6776 62.1248C48.7509 62.2235 48.799 62.3322 48.8218 62.4511C48.885 62.3373 48.9723 62.231 49.0836 62.1324C49.1974 62.0312 49.3227 61.9439 49.4593 61.8705C49.5959 61.7972 49.7401 61.739 49.8919 61.696C50.0462 61.653 50.1967 61.6315 50.3434 61.6315C50.4902 61.6315 50.6268 61.6644 50.7533 61.7301C50.8823 61.7934 50.9949 61.8807 51.091 61.992C51.1871 62.1008 51.263 62.2298 51.3187 62.379C51.3743 62.5258 51.4022 62.6826 51.4022 62.8496V65.5894H50.6318V62.9558C50.6318 62.8471 50.6129 62.7446 50.5749 62.6485C50.5395 62.5498 50.4902 62.4638 50.4269 62.3904C50.3637 62.3171 50.2891 62.2589 50.203 62.2159C50.1196 62.1729 50.031 62.1514 49.9374 62.1514C49.8312 62.1514 49.7224 62.1665 49.6111 62.1969C49.5023 62.2247 49.3986 62.2639 49.2999 62.3145C49.2012 62.3651 49.1114 62.4246 49.0305 62.4929C48.9495 62.5587 48.885 62.6295 48.837 62.7054V65.5894H48.0666V62.9558C48.0666 62.8471 48.0477 62.7446 48.0097 62.6485C47.9718 62.5498 47.9212 62.4638 47.8579 62.3904C47.7947 62.3171 47.72 62.2589 47.634 62.2159C47.548 62.1729 47.4582 62.1514 47.3646 62.1514C47.2659 62.1514 47.1635 62.1665 47.0572 62.1969C46.9535 62.2273 46.8511 62.2677 46.7499 62.3183C46.6512 62.3689 46.5589 62.4284 46.4729 62.4967C46.3868 62.5624 46.316 62.632 46.2603 62.7054V65.5894H45.4862V61.8478L46.0403 61.6315Z" fill="white"/>
</svg>
