<svg width="25" height="22" viewBox="0 0 25 22" fill="none" xmlns="http://www.w3.org/2000/svg">
<path fill-rule="evenodd" clip-rule="evenodd" d="M22.3332 5.95607C22.3422 6.18925 22.3452 6.42233 22.3452 6.65551C22.3452 13.7251 17.3721 21.8865 8.27801 21.8865C5.48446 21.8865 2.88686 20.9962 0.698242 19.4805C1.08512 19.5229 1.47803 19.5548 1.87696 19.5548C4.1932 19.5548 6.32655 18.6961 8.01876 17.2546C5.85526 17.2228 4.02841 15.6648 3.39835 13.5449C3.70082 13.6085 4.01231 13.6404 4.33085 13.6404C4.78003 13.6404 5.21615 13.5769 5.63417 13.4497C3.37019 12.9621 1.66494 10.8 1.66494 8.2032C1.66494 8.1714 1.66494 8.16074 1.66494 8.13954C2.33217 8.53171 3.09587 8.77537 3.9068 8.80716C2.57836 7.84265 1.70511 6.19983 1.70511 4.34498C1.70511 3.36987 1.94829 2.4477 2.37637 1.65277C4.81419 4.89609 8.4589 7.02655 12.5678 7.24913C12.4834 6.85696 12.4402 6.4437 12.4402 6.03033C12.4402 3.07318 14.6539 0.677734 17.3852 0.677734C18.8071 0.677734 20.0913 1.32437 20.9927 2.36308C22.1211 2.1299 23.1783 1.68477 24.1349 1.07003C23.7641 2.32072 22.9813 3.36981 21.9584 4.02696C22.9592 3.89977 23.9139 3.61381 24.7992 3.18985C24.1349 4.26036 23.2989 5.20353 22.3332 5.95607Z" fill="white"/>
</svg>
